<svg width="16" height="17" viewBox="0 0 16 17" fill="none" xmlns="http://www.w3.org/2000/svg">
<g clip-path="url(#clip0_48_1494)">
<path d="M7.77011 4.35862C7.5998 3.43019 8.0388 2.47472 8.56749 1.83081C9.15014 1.12034 10.15 0.5755 11.0045 0.515625C11.1489 1.48903 10.7516 2.43744 10.2287 3.10828C9.6678 3.82897 8.70336 4.38784 7.77011 4.35862ZM12.7823 7.72284C13.0467 6.98516 13.5705 6.32144 14.3831 5.87362C13.562 4.84887 12.409 4.25394 11.321 4.25394C9.88142 4.25394 9.27277 4.93978 8.27289 4.93978C7.24289 4.93978 6.46149 4.25394 5.21458 4.25394C3.99186 4.25394 2.69033 4.99919 1.86489 6.27197C1.56139 6.74244 1.3558 7.32691 1.24367 7.97791C0.932548 9.80412 1.3973 12.1828 2.78364 14.2949C3.4577 15.3198 4.35617 16.4742 5.52992 16.4842C6.57552 16.4945 6.87214 15.8157 8.28761 15.8087C9.70517 15.8007 9.97383 16.4913 11.018 16.4813C12.1921 16.4714 13.14 15.1938 13.8141 14.1691C14.2941 13.4337 14.4756 13.0623 14.8488 12.2309C12.9511 11.5152 12.1706 9.42409 12.7823 7.72284Z" fill="black"/>
</g>
<defs>
<clipPath id="clip0_48_1494">
<rect width="16" height="16" fill="white" transform="translate(0 0.5)"/>
</clipPath>
</defs>
</svg>
