<svg width="9" height="6" viewBox="0 0 9 6" fill="none" xmlns="http://www.w3.org/2000/svg">
<path fill-rule="evenodd" clip-rule="evenodd" d="M4.2158 5.38438C4.37278 5.53854 4.62724 5.53854 4.78422 5.38438L8.88227 1.35993C9.03924 1.20577 9.03924 0.955879 8.88227 0.801722L8.69278 0.615618C8.53581 0.461461 8.28131 0.461461 8.12433 0.615618L4.50001 4.17486L0.875659 0.615619C0.718682 0.461461 0.464218 0.461461 0.30724 0.615619L0.117733 0.801723C-0.0392437 0.95588 -0.0392436 1.20577 0.117733 1.35993L4.2158 5.38438Z" fill="white"/>
<path fill-rule="evenodd" clip-rule="evenodd" d="M4.2158 5.38438C4.37278 5.53854 4.62724 5.53854 4.78422 5.38438L8.88227 1.35993C9.03924 1.20577 9.03924 0.955879 8.88227 0.801722L8.69278 0.615618C8.53581 0.461461 8.28131 0.461461 8.12433 0.615618L4.50001 4.17486L0.875659 0.615619C0.718682 0.461461 0.464218 0.461461 0.30724 0.615619L0.117733 0.801723C-0.0392437 0.95588 -0.0392436 1.20577 0.117733 1.35993L4.2158 5.38438Z" fill="#50618C" fill-opacity="0.57"/>
</svg>
