<svg width="18" height="18" viewBox="0 0 18 18" fill="none" xmlns="http://www.w3.org/2000/svg">
<path d="M13.6096 1.56427L5.71842 3.54303C4.56612 3.82912 3.39794 4.9973 3.11185 6.1496L1.13309 14.0408C0.537077 16.4249 1.9993 17.895 4.39129 17.299L12.2825 15.3282C13.4269 15.0421 14.603 13.866 14.8891 12.7216L16.8679 4.82247C17.4639 2.43842 15.9937 0.968257 13.6096 1.56427Z" stroke="black" stroke-linecap="round" stroke-linejoin="round"/>
<path d="M9.00039 12.2132C10.5365 12.2132 11.7818 10.9679 11.7818 9.43178C11.7818 7.89566 10.5365 6.65039 9.00039 6.65039C7.46426 6.65039 6.21899 7.89566 6.21899 9.43178C6.21899 10.9679 7.46426 12.2132 9.00039 12.2132Z" stroke="black" stroke-linecap="round" stroke-linejoin="round"/>
</svg>
