<svg width="17" height="12" viewBox="0 0 17 12" fill="none" xmlns="http://www.w3.org/2000/svg">
<path d="M14.0535 1.005C13.0178 0.535497 11.9104 0.194288 10.7526 0C10.6104 0.249071 10.4443 0.584077 10.3297 0.850573C9.09901 0.671242 7.87953 0.671242 6.67142 0.850573C6.55691 0.584077 6.38705 0.249071 6.24358 0C5.08454 0.194288 3.97583 0.536753 2.94013 1.00749C0.851097 4.06602 0.284792 7.04858 0.567944 9.98877C1.9535 10.9913 3.29627 11.6002 4.61638 11.9988C4.94232 11.5641 5.23302 11.1021 5.48345 10.6152C5.0065 10.4396 4.54969 10.2229 4.11805 9.97136C4.23256 9.88918 4.34457 9.80326 4.45278 9.71483C7.08545 10.9079 9.94595 10.9079 12.5471 9.71483C12.6566 9.80326 12.7686 9.88918 12.8819 9.97136C12.449 10.2242 11.9909 10.4409 11.514 10.6164C11.7644 11.1021 12.0538 11.5654 12.3811 12C13.7024 11.6015 15.0465 10.9925 16.432 9.98877C16.7642 6.58031 15.8644 3.62516 14.0535 1.005ZM5.84211 8.18057C5.05181 8.18057 4.4037 7.46575 4.4037 6.59526C4.4037 5.72478 5.03797 5.00873 5.84211 5.00873C6.6463 5.00873 7.29436 5.72355 7.28055 6.59526C7.28177 7.46575 6.6463 8.18057 5.84211 8.18057ZM11.1578 8.18057C10.3675 8.18057 9.71938 7.46575 9.71938 6.59526C9.71938 5.72478 10.3537 5.00873 11.1578 5.00873C11.962 5.00873 12.6101 5.72355 12.5963 6.59526C12.5963 7.46575 11.962 8.18057 11.1578 8.18057Z" fill="black"/>
</svg>
