<svg width="17" height="17" viewBox="0 0 17 17" fill="none" xmlns="http://www.w3.org/2000/svg">
<g clip-path="url(#clip0_53_2465)">
<path fill-rule="evenodd" clip-rule="evenodd" d="M16.3572 6.45782H8.66904C8.66904 7.25737 8.66903 8.85632 8.66413 9.65587H13.1192C12.9485 10.4554 12.3432 11.575 11.488 12.1387C11.488 12.1387 11.4863 12.1434 11.4847 12.1426C10.3477 12.8934 8.84711 13.0637 7.73293 12.8398C5.98651 12.4929 4.60438 11.2263 4.04321 9.61758C4.04648 9.61518 4.04894 9.59301 4.05139 9.59141C3.70014 8.59357 3.70014 7.25737 4.05139 6.45782H4.05057C4.5031 4.98825 5.92686 3.64747 7.67574 3.28048C9.08236 2.98224 10.6695 3.30509 11.8368 4.39727C11.992 4.24536 13.9851 2.29933 14.1346 2.14102C10.1467 -1.47055 3.7614 -0.200097 1.37211 4.46368H1.3713C1.3713 4.46368 1.37212 4.46387 1.36722 4.47266C0.185237 6.76338 0.234247 9.46258 1.37539 11.6438C1.37212 11.6461 1.36967 11.6476 1.36722 11.65C2.40135 13.6569 4.28337 15.196 6.55095 15.782C8.95984 16.4137 12.0255 15.982 14.079 14.1246L14.0815 14.127C15.8214 12.5598 16.9045 9.89029 16.3572 6.45782Z" fill="black"/>
</g>
<defs>
<clipPath id="clip0_53_2465">
<rect width="16" height="16" fill="white" transform="translate(0.5 0.0546875)"/>
</clipPath>
</defs>
</svg>
