<svg width="18" height="18" viewBox="0 0 18 18" fill="none" xmlns="http://www.w3.org/2000/svg">
<path d="M1 9.59476C1 7.76403 1 6.84866 1.41536 6.08983C1.83072 5.33101 2.58956 4.86005 4.10722 3.91814L5.70722 2.92514C7.31151 1.92947 8.11368 1.43164 9 1.43164C9.88632 1.43164 10.6885 1.92947 12.2928 2.92514L13.8928 3.91814C15.4105 4.86005 16.1693 5.33101 16.5846 6.08983C17 6.84866 17 7.76403 17 9.59476V10.8116C17 13.9323 17 15.4927 16.0627 16.4621C15.1255 17.4316 13.617 17.4316 10.6 17.4316H7.4C4.38301 17.4316 2.87452 17.4316 1.93726 16.4621C1 15.4927 1 13.9323 1 10.8116V9.59476Z" stroke="black"/>
<path d="M11.3999 14.2305H6.59985" stroke="black" stroke-linecap="round"/>
</svg>
