<svg width="17" height="17" viewBox="0 0 17 17" fill="none" xmlns="http://www.w3.org/2000/svg">
<g clip-path="url(#clip0_48_1500)">
<path fill-rule="evenodd" clip-rule="evenodd" d="M16.5 6C16.5 9.03757 14.0376 11.5 11 11.5H7.5V13.5H5.5V15.5L4.5 16.5H0.5V12.5L5.66351 7.33649C5.5567 6.90863 5.5 6.46094 5.5 6C5.5 2.96243 7.96243 0.5 11 0.5C14.0376 0.5 16.5 2.96243 16.5 6ZM13.5 4.5C13.5 5.05228 13.0523 5.5 12.5 5.5C11.9477 5.5 11.5 5.05228 11.5 4.5C11.5 3.94772 11.9477 3.5 12.5 3.5C13.0523 3.5 13.5 3.94772 13.5 4.5Z" fill="black"/>
</g>
<defs>
<clipPath id="clip0_48_1500">
<rect width="16" height="16" fill="white" transform="translate(0.5 0.5)"/>
</clipPath>
</defs>
</svg>
