<svg width="16" height="17" viewBox="0 0 16 17" fill="none" xmlns="http://www.w3.org/2000/svg">
<path d="M8 5.03753C7.2666 4.10409 6.13604 3.17065 3.33413 3.10215C3.15009 3.09766 3 3.24714 3 3.43124C3 4.79689 3 9.96707 3 11.4961C3 11.6802 3.1501 11.8248 3.33409 11.8308C6.13603 11.9224 7.2666 13.1647 8 14.0981M8 5.03753C8.7334 4.10409 9.86393 3.17065 12.6659 3.10215C12.8499 3.09766 13 3.24378 13 3.42788C13 4.95445 13 9.96907 13 11.4957C13 11.6797 12.8499 11.8248 12.6659 11.8308C9.864 11.9224 8.7334 13.1647 8 14.0981M8 5.03753V14.0981" stroke="black" stroke-width="0.6" stroke-linejoin="round"/>
<path d="M12.8235 4.43164H14.3333C14.5173 4.43164 14.6666 4.58088 14.6666 4.76497V13.4576C14.6666 13.7274 14.3488 13.9066 14.1023 13.797C13.5722 13.5615 12.6876 13.2738 11.5293 13.2738C9.56852 13.2738 7.99992 14.4316 7.99992 14.4316C7.99992 14.4316 6.43129 13.2738 4.47051 13.2738C3.31222 13.2738 2.42763 13.5615 1.89757 13.797C1.65104 13.9066 1.33325 13.7274 1.33325 13.4576V4.76497C1.33325 4.58088 1.48249 4.43164 1.66659 4.43164H3.17639" stroke="black" stroke-width="0.6" stroke-linejoin="round"/>
</svg>
