<svg
        width="153"
        height="25"
        viewBox="0 0 153 25"
        fill="none"
        xmlns="http://www.w3.org/2000/svg"
      >
        <g clip-path="url(#clip0_53_2423)">
          <path
            d="M34.5782 19.8551V5.62328H36.6032L44.4355 16.1682L43.3848 16.3783V5.62328H45.9828V19.8551H43.9388L36.2211 9.23379L37.1762 9.02365V19.8551H34.5782ZM53.609 20.0844C52.5902 20.0844 51.6605 19.8488 50.8199 19.3775C49.9921 18.9063 49.3299 18.2632 48.8332 17.4482C48.3492 16.633 48.1073 15.7033 48.1073 14.659C48.1073 13.6147 48.3492 12.6851 48.8332 11.87C49.3299 11.0549 49.9921 10.4118 50.8199 9.94056C51.6478 9.46938 52.5774 9.23379 53.609 9.23379C54.6278 9.23379 55.5512 9.46938 56.379 9.94056C57.2067 10.4118 57.8626 11.0549 58.3466 11.87C58.8433 12.6724 59.0916 13.6021 59.0916 14.659C59.0916 15.7033 58.8433 16.633 58.3466 17.4482C57.8499 18.2632 57.1876 18.9063 56.3599 19.3775C55.5321 19.8488 54.6151 20.0844 53.609 20.0844ZM53.609 17.7919C54.1693 17.7919 54.6597 17.6582 55.0799 17.3908C55.513 17.1234 55.8504 16.7541 56.0924 16.2828C56.3471 15.7989 56.4744 15.2576 56.4744 14.659C56.4744 14.0478 56.3471 13.5129 56.0924 13.0544C55.8504 12.5832 55.513 12.2139 55.0799 11.9464C54.6597 11.6663 54.1693 11.5261 53.609 11.5261C53.0359 11.5261 52.5329 11.6663 52.0998 11.9464C51.6669 12.2139 51.323 12.5832 51.0683 13.0544C50.8263 13.5129 50.7053 14.0478 50.7053 14.659C50.7053 15.2576 50.8263 15.7989 51.0683 16.2828C51.323 16.7541 51.6669 17.1234 52.0998 17.3908C52.5329 17.6582 53.0359 17.7919 53.609 17.7919ZM65.8224 20.0844C64.8164 20.0844 63.9185 19.8488 63.1289 19.3775C62.3393 18.8936 61.7153 18.2377 61.2568 17.41C60.7983 16.5821 60.5691 15.6651 60.5691 14.659C60.5691 13.6403 60.7983 12.7233 61.2568 11.9082C61.7153 11.0932 62.3393 10.4436 63.1289 9.95967C63.9312 9.47572 64.8228 9.23379 65.8033 9.23379C66.593 9.23379 67.2934 9.39297 67.9047 9.71131C68.5287 10.017 69.0191 10.45 69.3757 11.0104L68.9936 11.5261V5.39404H71.4961V19.8551H69.1273V17.8493L69.3948 18.346C69.0382 18.9063 68.5415 19.3393 67.9047 19.645C67.2679 19.9379 66.5738 20.0844 65.8224 20.0844ZM66.0899 17.7919C66.663 17.7919 67.1661 17.6582 67.5991 17.3908C68.032 17.1234 68.3696 16.7541 68.6115 16.2828C68.8663 15.8116 68.9936 15.2704 68.9936 14.659C68.9936 14.0605 68.8663 13.5256 68.6115 13.0544C68.3696 12.5704 68.032 12.1948 67.5991 11.9273C67.1661 11.6599 66.663 11.5261 66.0899 11.5261C65.5295 11.5261 65.0265 11.6663 64.5808 11.9464C64.135 12.2139 63.7848 12.5832 63.5301 13.0544C63.2881 13.5129 63.1671 14.0478 63.1671 14.659C63.1671 15.2704 63.2881 15.8116 63.5301 16.2828C63.7848 16.7541 64.135 17.1234 64.5808 17.3908C65.0265 17.6582 65.5295 17.7919 66.0899 17.7919ZM78.7529 20.0844C77.6831 20.0844 76.7471 19.8423 75.9447 19.3584C75.1424 18.8745 74.5183 18.2186 74.0726 17.3908C73.6269 16.563 73.404 15.646 73.404 14.6399C73.404 13.5956 73.6269 12.6724 74.0726 11.87C74.5311 11.0549 75.1488 10.4118 75.9256 9.94056C76.7152 9.46938 77.5939 9.23379 78.5618 9.23379C79.377 9.23379 80.0901 9.36752 80.7014 9.63498C81.3254 9.90235 81.854 10.2717 82.287 10.7429C82.7199 11.2141 83.0511 11.7554 83.2803 12.3667C83.5093 12.9653 83.6244 13.6147 83.6244 14.3152C83.6244 14.4935 83.6111 14.6781 83.5861 14.8692C83.5735 15.0602 83.541 15.2258 83.4901 15.3659H75.4671V13.4556H82.0768L80.8924 14.3535C81.0071 13.7676 80.9752 13.2454 80.7969 12.787C80.6313 12.3285 80.3512 11.9655 79.9564 11.6981C79.5743 11.4306 79.1095 11.2969 78.5618 11.2969C78.0397 11.2969 77.5748 11.4306 77.1673 11.6981C76.7598 11.9528 76.4478 12.3348 76.2313 12.8442C76.0275 13.3409 75.9511 13.9458 76.002 14.659C75.9511 15.2958 76.0339 15.8626 76.2504 16.3592C76.4796 16.8432 76.8107 17.2189 77.2437 17.4864C77.6895 17.7537 78.1989 17.8875 78.772 17.8875C79.3451 17.8875 79.829 17.7665 80.2238 17.5245C80.6313 17.2826 80.9498 16.9578 81.179 16.5503L83.204 17.5436C83.0002 18.0403 82.6817 18.4797 82.2488 18.8618C81.8158 19.2438 81.3 19.5431 80.7014 19.7596C80.1156 19.9761 79.4661 20.0844 78.7529 20.0844ZM94.2085 20.0844C93.3041 20.0844 92.4632 19.9188 91.6865 19.5877C90.9224 19.2565 90.26 18.798 89.6994 18.2122C89.1521 17.6137 88.7508 16.9196 88.4964 16.13L90.6546 15.194C90.9991 16.009 91.4955 16.6521 92.1445 17.1234C92.7944 17.5818 93.5269 17.8111 94.3419 17.8111C94.7999 17.8111 95.1954 17.7411 95.5266 17.6009C95.8703 17.4482 96.1314 17.2444 96.3091 16.9897C96.5001 16.735 96.5961 16.4293 96.5961 16.0727C96.5961 15.6525 96.4684 15.3086 96.214 15.0411C95.972 14.761 95.6025 14.5444 95.1061 14.3916L92.374 13.5129C91.2661 13.169 90.4318 12.6533 89.8721 11.9655C89.3115 11.2778 89.0311 10.4691 89.0311 9.53946C89.0311 8.72432 89.2289 8.0048 89.6235 7.38077C90.0306 6.75674 90.5912 6.27279 91.3045 5.92893C92.0302 5.57234 92.8578 5.39404 93.788 5.39404C94.6414 5.39404 95.4239 5.54687 96.1372 5.85252C96.8505 6.14544 97.462 6.55934 97.9717 7.09422C98.494 7.61637 98.8819 8.23405 99.1363 8.94723L96.9973 9.90235C96.717 9.18916 96.2966 8.64156 95.7359 8.25951C95.1762 7.86472 94.5263 7.66732 93.788 7.66732C93.355 7.66732 92.9729 7.74373 92.6417 7.89655C92.3106 8.03665 92.0494 8.24041 91.8584 8.50784C91.6799 8.76253 91.5906 9.0682 91.5906 9.42483C91.5906 9.8196 91.7182 10.1698 91.9727 10.4755C92.228 10.7684 92.6159 10.9976 93.1381 11.1632L95.7551 11.9846C96.8889 12.3539 97.7356 12.8633 98.2962 13.5129C98.8694 14.1624 99.1555 14.9647 99.1555 15.9199C99.1555 16.735 98.9453 17.4545 98.5257 18.0785C98.1052 18.7025 97.5254 19.1929 96.7871 19.5494C96.048 19.9061 95.1887 20.0844 94.2085 20.0844ZM106.214 20.0844C105.144 20.0844 104.208 19.8423 103.405 19.3584C102.603 18.8745 101.979 18.2186 101.533 17.3908C101.088 16.563 100.865 15.646 100.865 14.6399C100.865 13.5956 101.088 12.6724 101.533 11.87C101.992 11.0549 102.609 10.4118 103.387 9.94056C104.176 9.46938 105.054 9.23379 106.023 9.23379C106.838 9.23379 107.55 9.36752 108.162 9.63498C108.786 9.90235 109.315 10.2717 109.748 10.7429C110.181 11.2141 110.512 11.7554 110.741 12.3667C110.97 12.9653 111.085 13.6147 111.085 14.3152C111.085 14.4935 111.072 14.6781 111.047 14.8692C111.034 15.0602 111.002 15.2258 110.951 15.3659H102.928V13.4556H109.538L108.353 14.3535C108.468 13.7676 108.436 13.2454 108.258 12.787C108.092 12.3285 107.812 11.9655 107.417 11.6981C107.035 11.4306 106.57 11.2969 106.023 11.2969C105.501 11.2969 105.035 11.4306 104.628 11.6981C104.22 11.9528 103.908 12.3348 103.692 12.8442C103.489 13.3409 103.412 13.9458 103.463 14.659C103.412 15.2958 103.494 15.8626 103.711 16.3592C103.941 16.8432 104.271 17.2189 104.705 17.4864C105.15 17.7537 105.659 17.8875 106.232 17.8875C106.806 17.8875 107.289 17.7665 107.685 17.5245C108.092 17.2826 108.411 16.9578 108.64 16.5503L110.665 17.5436C110.461 18.0403 110.142 18.4797 109.71 18.8618C109.277 19.2438 108.761 19.5431 108.162 19.7596C107.576 19.9761 106.926 20.0844 106.214 20.0844ZM116.096 20.0844C115.371 20.0844 114.74 19.9634 114.205 19.7214C113.67 19.4795 113.257 19.1356 112.964 18.6898C112.671 18.2313 112.524 17.7029 112.524 17.1043C112.524 16.5312 112.652 16.0218 112.906 15.576C113.161 15.1175 113.556 14.7355 114.091 14.4298C114.626 14.1242 115.301 13.9076 116.116 13.7803L119.516 13.2263V15.1366L116.594 15.6333C116.096 15.7224 115.728 15.8817 115.485 16.1109C115.243 16.3401 115.122 16.6394 115.122 17.0088C115.122 17.3653 115.256 17.6519 115.523 17.8684C115.804 18.0722 116.147 18.174 116.555 18.174C117.078 18.174 117.536 18.0657 117.931 17.8493C118.338 17.62 118.65 17.308 118.867 16.9132C119.096 16.5184 119.211 16.0854 119.211 15.6142V12.9397C119.211 12.494 119.032 12.1247 118.676 11.8318C118.331 11.5261 117.873 11.3733 117.3 11.3733C116.766 11.3733 116.288 11.5198 115.867 11.8127C115.46 12.0929 115.16 12.4686 114.969 12.9397L112.926 11.9464C113.129 11.3988 113.448 10.9276 113.881 10.5328C114.326 10.1253 114.848 9.80683 115.447 9.57767C116.046 9.34842 116.695 9.23379 117.395 9.23379C118.249 9.23379 119 9.39297 119.649 9.71131C120.299 10.017 120.802 10.45 121.159 11.0104C121.528 11.558 121.713 12.2011 121.713 12.9397V19.8551H119.344V18.0785L119.879 18.0403C119.612 18.486 119.293 18.8618 118.924 19.1674C118.555 19.4603 118.135 19.6895 117.663 19.8551C117.192 20.0079 116.67 20.0844 116.096 20.0844ZM124.026 19.8551V9.46304H126.376V11.7745L126.185 11.4306C126.427 10.6538 126.802 10.1125 127.312 9.80683C127.834 9.50125 128.458 9.34842 129.184 9.34842H129.795V11.5643H128.897C128.184 11.5643 127.611 11.7872 127.178 12.233C126.745 12.6659 126.529 13.2773 126.529 14.0669V19.8551H124.026ZM136.176 20.0844C135.145 20.0844 134.215 19.8488 133.387 19.3775C132.572 18.8936 131.929 18.2441 131.457 17.4291C130.986 16.6012 130.751 15.6716 130.751 14.6399C130.751 13.6084 130.986 12.6851 131.457 11.87C131.929 11.0549 132.572 10.4118 133.387 9.94056C134.215 9.46938 135.145 9.23379 136.176 9.23379C136.915 9.23379 137.602 9.36752 138.239 9.63498C138.876 9.88967 139.424 10.2462 139.882 10.7047C140.353 11.1505 140.691 11.6854 140.894 12.3094L138.698 13.2645C138.507 12.7424 138.182 12.3221 137.723 12.0037C137.278 11.6854 136.761 11.5261 136.176 11.5261C135.629 11.5261 135.138 11.6599 134.705 11.9273C134.285 12.1948 133.953 12.5641 133.711 13.0353C133.47 13.5065 133.349 14.0478 133.349 14.659C133.349 15.2704 133.47 15.8116 133.711 16.2828C133.953 16.7541 134.285 17.1234 134.705 17.3908C135.138 17.6582 135.629 17.7919 136.176 17.7919C136.775 17.7919 137.297 17.6328 137.743 17.3144C138.188 16.996 138.507 16.5694 138.698 16.0345L140.894 17.0279C140.691 17.6137 140.36 18.1422 139.901 18.6134C139.443 19.0718 138.895 19.4348 138.258 19.7023C137.622 19.957 136.927 20.0844 136.176 20.0844ZM142.793 19.8551V5.39404H145.296V11.507L144.952 11.1441C145.194 10.52 145.589 10.0488 146.137 9.73042C146.696 9.39931 147.346 9.23379 148.085 9.23379C148.849 9.23379 149.524 9.39931 150.11 9.73042C150.708 10.0616 151.173 10.5265 151.504 11.125C151.835 11.7108 152.001 12.3922 152.001 13.169V19.8551H149.499V13.7612C149.499 13.3027 149.409 12.908 149.231 12.5769C149.052 12.2457 148.805 11.991 148.486 11.8127C148.181 11.6216 147.818 11.5261 147.397 11.5261C146.989 11.5261 146.626 11.6216 146.309 11.8127C145.99 11.991 145.741 12.2457 145.564 12.5769C145.385 12.908 145.296 13.3027 145.296 13.7612V19.8551H142.793Z"
            fill="#141414"
          />
          <path
            d="M24.1323 14.0379C22.0166 14.0379 20.1741 15.482 19.6688 17.5365L19.278 19.1249L17.0672 16.2051C19.2828 16.2051 21.061 14.3754 20.9978 12.1607L20.9658 11.041L24.1323 14.0379Z"
            fill="#141414"
          />
          <path
            d="M12.5207 10.3232L13.3247 13.2298C13.8108 14.9876 15.4104 16.2047 17.2341 16.2047L14.8983 18.7908L14.3685 16.5861C13.9123 14.688 12.2961 13.2925 10.3517 13.118L12.5207 10.3232Z"
            fill="#141414"
          />
          <path
            d="M24.189 14.0378C25.969 14.0378 27.412 12.5948 27.412 10.8148C27.412 9.03477 25.969 7.5918 24.189 7.5918C22.409 7.5918 20.966 9.03477 20.966 10.8148C20.966 12.5948 22.409 14.0378 24.189 14.0378Z"
            fill="#141414"
          />
          <path
            d="M17.1211 20.7095C18.3702 20.7095 19.3828 19.6969 19.3828 18.4478C19.3828 17.1986 18.3702 16.186 17.1211 16.186C15.8719 16.186 14.8593 17.1986 14.8593 18.4478C14.8593 19.6969 15.8719 20.7095 17.1211 20.7095Z"
            fill="#141414"
          />
          <path
            d="M3.27982 15.2648C5.39554 15.2648 7.23799 13.8206 7.74334 11.7661L8.13405 10.1777L10.3449 13.0976C8.12921 13.0976 6.35103 14.9272 6.41426 17.142L6.44622 18.2616L3.27982 15.2648Z"
            fill="#141414"
          />
          <path
            d="M3.22298 15.265C1.44297 15.265 -1.43051e-06 16.708 -1.43051e-06 18.488C-1.43051e-06 20.268 1.44297 21.7109 3.22298 21.7109C5.00298 21.7109 6.44595 20.268 6.44595 18.488C6.44595 16.708 5.00298 15.265 3.22298 15.265Z"
            fill="#141414"
          />
          <path
            d="M10.2908 8.59273C9.04166 8.59273 8.02904 9.60535 8.02904 10.8545C8.02904 12.1036 9.04166 13.1162 10.2908 13.1162C11.5399 13.1162 12.5525 12.1036 12.5525 10.8545C12.5525 9.60535 11.5399 8.59273 10.2908 8.59273Z"
            fill="#141414"
          />
          <path
            d="M24.1323 14.0379C22.0166 14.0379 20.1741 15.482 19.6688 17.5365L19.278 19.1249L17.0672 16.2051C19.2828 16.2051 21.061 14.3754 20.9978 12.1607L20.9658 11.041L24.1323 14.0379Z"
            fill="#141414"
          />
          <path
            d="M12.5207 10.3232L13.3247 13.2298C13.8108 14.9876 15.4104 16.2047 17.2341 16.2047L14.8983 18.7908L14.3685 16.5861C13.9123 14.688 12.2961 13.2925 10.3517 13.118L12.5207 10.3232Z"
            fill="#141414"
          />
          <path
            d="M24.189 14.0378C25.969 14.0378 27.412 12.5948 27.412 10.8148C27.412 9.03477 25.969 7.5918 24.189 7.5918C22.409 7.5918 20.966 9.03477 20.966 10.8148C20.966 12.5948 22.409 14.0378 24.189 14.0378Z"
            fill="#141414"
          />
          <path
            d="M17.1211 20.7095C18.3702 20.7095 19.3828 19.6969 19.3828 18.4478C19.3828 17.1986 18.3702 16.186 17.1211 16.186C15.8719 16.186 14.8593 17.1986 14.8593 18.4478C14.8593 19.6969 15.8719 20.7095 17.1211 20.7095Z"
            fill="#141414"
          />
          <path
            d="M3.27982 15.2648C5.39554 15.2648 7.23799 13.8206 7.74334 11.7661L8.13405 10.1777L10.3449 13.0976C8.12921 13.0976 6.35103 14.9272 6.41426 17.142L6.44622 18.2616L3.27982 15.2648Z"
            fill="#141414"
          />
          <path
            d="M3.22298 15.265C1.44297 15.265 -1.43051e-06 16.708 -1.43051e-06 18.488C-1.43051e-06 20.268 1.44297 21.7109 3.22298 21.7109C5.00298 21.7109 6.44595 20.268 6.44595 18.488C6.44595 16.708 5.00298 15.265 3.22298 15.265Z"
            fill="#141414"
          />
          <path
            d="M10.2908 8.59273C9.04166 8.59273 8.02904 9.60535 8.02904 10.8545C8.02904 12.1036 9.04166 13.1162 10.2908 13.1162C11.5399 13.1162 12.5525 12.1036 12.5525 10.8545C12.5525 9.60535 11.5399 8.59273 10.2908 8.59273Z"
            fill="#141414"
          />
        </g>
        <defs>
          <clipPath id="clip0_53_2423">
            <rect width="153" height="24.1096" fill="white" />
          </clipPath>
        </defs>
      </svg>