<svg width="737" height="116" viewBox="0 0 737 116" fill="none" xmlns="http://www.w3.org/2000/svg">
<g filter="url(#filter0_d_25_21)">
<mask id="path-1-outside-1_25_21" maskUnits="userSpaceOnUse" x="164.735" y="24" width="568" height="74" fill="black">
<rect fill="white" x="164.735" y="24" width="568" height="74"/>
<path d="M166.352 95V26.5319H176.094L213.775 77.2626L208.72 78.2736V26.5319H221.219V95H211.385L174.256 43.9017L178.851 42.8907V95H166.352ZM257.908 96.1028C253.006 96.1028 248.533 94.9694 244.49 92.7024C240.507 90.4355 237.321 87.3414 234.932 83.4202C232.604 79.4989 231.439 75.0263 231.439 70.0023C231.439 64.9782 232.604 60.5056 234.932 56.5844C237.321 52.6631 240.507 49.5691 244.49 47.3021C248.472 45.0351 252.945 43.9017 257.908 43.9017C262.809 43.9017 267.251 45.0351 271.234 47.3021C275.216 49.5691 278.371 52.6631 280.7 56.5844C283.089 60.4443 284.284 64.9169 284.284 70.0023C284.284 75.0263 283.089 79.4989 280.7 83.4202C278.31 87.3414 275.124 90.4355 271.142 92.7024C267.159 94.9694 262.748 96.1028 257.908 96.1028ZM257.908 85.0744C260.603 85.0744 262.962 84.4311 264.984 83.1445C267.067 81.8578 268.691 80.081 269.855 77.8141C271.08 75.4858 271.693 72.8819 271.693 70.0023C271.693 67.0613 271.08 64.488 269.855 62.2824C268.691 60.0154 267.067 58.2386 264.984 56.952C262.962 55.604 260.603 54.9301 257.908 54.9301C255.151 54.9301 252.73 55.604 250.647 56.952C248.564 58.2386 246.91 60.0154 245.684 62.2824C244.52 64.488 243.938 67.0613 243.938 70.0023C243.938 72.8819 244.52 75.4858 245.684 77.8141C246.91 80.081 248.564 81.8578 250.647 83.1445C252.73 84.4311 255.151 85.0744 257.908 85.0744ZM316.666 96.1028C311.825 96.1028 307.506 94.9694 303.707 92.7024C299.908 90.3742 296.906 87.2188 294.701 83.2364C292.495 79.2539 291.392 74.8425 291.392 70.0023C291.392 65.1007 292.495 60.6894 294.701 56.7682C296.906 52.8469 299.908 49.7222 303.707 47.394C307.567 45.0658 311.856 43.9017 316.574 43.9017C320.372 43.9017 323.742 44.6675 326.683 46.1993C329.685 47.6697 332.044 49.7529 333.76 52.4487L331.922 54.9301V25.4291H343.961V95H332.565V85.3501L333.852 87.7396C332.136 90.4355 329.746 92.5186 326.683 93.9891C323.62 95.3982 320.28 96.1028 316.666 96.1028ZM317.952 85.0744C320.709 85.0744 323.129 84.4311 325.213 83.1445C327.296 81.8578 328.919 80.081 330.083 77.8141C331.309 75.5471 331.922 72.9432 331.922 70.0023C331.922 67.1226 331.309 64.5493 330.083 62.2824C328.919 59.9541 327.296 58.1467 325.213 56.8601C323.129 55.5734 320.709 54.9301 317.952 54.9301C315.256 54.9301 312.836 55.604 310.692 56.952C308.547 58.2386 306.863 60.0154 305.637 62.2824C304.473 64.488 303.891 67.0613 303.891 70.0023C303.891 72.9432 304.473 75.5471 305.637 77.8141C306.863 80.081 308.547 81.8578 310.692 83.1445C312.836 84.4311 315.256 85.0744 317.952 85.0744ZM378.873 96.1028C373.726 96.1028 369.223 94.9387 365.363 92.6105C361.503 90.2823 358.501 87.1269 356.356 83.1445C354.212 79.162 353.14 74.7506 353.14 69.9104C353.14 64.8863 354.212 60.4443 356.356 56.5844C358.562 52.6631 361.534 49.5691 365.271 47.3021C369.07 45.0351 373.297 43.9017 377.954 43.9017C381.875 43.9017 385.306 44.545 388.247 45.8316C391.249 47.1183 393.792 48.8951 395.875 51.162C397.958 53.429 399.551 56.0329 400.654 58.9738C401.757 61.8535 402.308 64.9782 402.308 68.348C402.308 69.2058 402.247 70.0942 402.124 71.0132C402.063 71.9322 401.91 72.7287 401.665 73.4027H363.065V64.2123H394.864L389.166 68.5318C389.717 65.7134 389.564 63.2014 388.706 60.9957C387.91 58.79 386.562 57.0439 384.663 55.7572C382.825 54.4706 380.588 53.8272 377.954 53.8272C375.442 53.8272 373.205 54.4706 371.245 55.7572C369.284 56.9826 367.783 58.8207 366.741 61.2714C365.761 63.6609 365.394 66.5712 365.639 70.0023C365.394 73.0657 365.792 75.7922 366.833 78.1817C367.936 80.5099 369.529 82.3173 371.612 83.604C373.757 84.8906 376.208 85.5339 378.965 85.5339C381.722 85.5339 384.05 84.9519 385.949 83.7878C387.91 82.6237 389.442 81.0613 390.544 79.1007L400.286 83.8797C399.306 86.2692 397.774 88.383 395.691 90.221C393.608 92.0591 391.126 93.4989 388.247 94.5405C385.428 95.5821 382.304 96.1028 378.873 96.1028ZM453.226 96.1028C448.876 96.1028 444.832 95.3063 441.095 93.7134C437.419 92.1204 434.233 89.9147 431.537 87.0963C428.902 84.2167 426.972 80.8775 425.747 77.0788L436.132 72.5756C437.786 76.4968 440.176 79.5909 443.301 81.8578C446.425 84.0635 449.948 85.1663 453.87 85.1663C456.075 85.1663 457.975 84.8293 459.568 84.1554C461.222 83.4202 462.478 82.4399 463.336 81.2145C464.255 79.9891 464.714 78.5186 464.714 76.8031C464.714 74.7812 464.101 73.127 462.876 71.8403C461.712 70.4924 459.935 69.4508 457.546 68.7156L444.403 64.488C439.073 62.8338 435.06 60.3524 432.364 57.0439C429.668 53.7353 428.32 49.8448 428.32 45.3721C428.32 41.4509 429.27 37.9892 431.169 34.987C433.13 31.9849 435.826 29.6566 439.257 28.0024C442.749 26.2868 446.732 25.4291 451.204 25.4291C455.309 25.4291 459.077 26.1643 462.508 27.6348C465.939 29.0439 468.88 31.0352 471.331 33.6085C473.843 36.1205 475.712 39.0921 476.937 42.5231L466.644 47.1183C465.296 43.6872 463.274 41.0527 460.578 39.2146C457.883 37.3153 454.758 36.3656 451.204 36.3656C449.121 36.3656 447.283 36.7332 445.69 37.4684C444.097 38.1424 442.841 39.1227 441.922 40.4093C441.064 41.6347 440.635 43.1052 440.635 44.8207C440.635 46.72 441.248 48.4049 442.473 49.8754C443.699 51.2846 445.568 52.3874 448.08 53.1839L460.67 57.1358C466.123 58.9126 470.198 61.3633 472.894 64.488C475.651 67.6128 477.029 71.4727 477.029 76.0679C477.029 79.9891 476.018 83.4508 473.996 86.453C471.974 89.4552 469.187 91.814 465.633 93.5295C462.08 95.2451 457.944 96.1028 453.226 96.1028ZM510.984 96.1028C505.837 96.1028 501.334 94.9387 497.474 92.6105C493.614 90.2823 490.612 87.1269 488.468 83.1445C486.323 79.162 485.251 74.7506 485.251 69.9104C485.251 64.8863 486.323 60.4443 488.468 56.5844C490.673 52.6631 493.645 49.5691 497.382 47.3021C501.181 45.0351 505.408 43.9017 510.065 43.9017C513.986 43.9017 517.417 44.545 520.358 45.8316C523.36 47.1183 525.903 48.8951 527.986 51.162C530.069 53.429 531.662 56.0329 532.765 58.9738C533.868 61.8535 534.419 64.9782 534.419 68.348C534.419 69.2058 534.358 70.0942 534.236 71.0132C534.174 71.9322 534.021 72.7287 533.776 73.4027H495.177V64.2123H526.975L521.277 68.5318C521.829 65.7134 521.675 63.2014 520.818 60.9957C520.021 58.79 518.673 57.0439 516.774 55.7572C514.936 54.4706 512.699 53.8272 510.065 53.8272C507.553 53.8272 505.317 54.4706 503.356 55.7572C501.395 56.9826 499.894 58.8207 498.853 61.2714C497.872 63.6609 497.505 66.5712 497.75 70.0023C497.505 73.0657 497.903 75.7922 498.945 78.1817C500.047 80.5099 501.64 82.3173 503.724 83.604C505.868 84.8906 508.319 85.5339 511.076 85.5339C513.833 85.5339 516.161 84.9519 518.06 83.7878C520.021 82.6237 521.553 81.0613 522.656 79.1007L532.397 83.8797C531.417 86.2692 529.885 88.383 527.802 90.221C525.719 92.0591 523.238 93.4989 520.358 94.5405C517.54 95.5821 514.415 96.1028 510.984 96.1028ZM558.53 96.1028C555.038 96.1028 552.005 95.5208 549.432 94.3567C546.859 93.1926 544.867 91.5383 543.458 89.3939C542.049 87.1882 541.344 84.6455 541.344 81.7659C541.344 79.0088 541.957 76.558 543.182 74.4136C544.408 72.2079 546.307 70.3699 548.88 68.8994C551.454 67.429 554.701 66.3874 558.622 65.7747L574.981 63.1095V72.2998L560.92 74.6893C558.53 75.1182 556.754 75.8841 555.589 76.9869C554.425 78.0898 553.843 79.5296 553.843 81.3064C553.843 83.0219 554.487 84.4005 555.773 85.442C557.121 86.4223 558.775 86.9125 560.736 86.9125C563.248 86.9125 565.454 86.3917 567.353 85.3501C569.314 84.2473 570.815 82.7462 571.856 80.8469C572.959 78.9475 573.511 76.8644 573.511 74.5974V61.7309C573.511 59.5865 572.653 57.8097 570.937 56.4005C569.283 54.9301 567.077 54.1949 564.32 54.1949C561.747 54.1949 559.449 54.8995 557.428 56.3086C555.467 57.6566 554.027 59.464 553.108 61.7309L543.274 56.952C544.255 54.3174 545.786 52.0504 547.87 50.1511C550.014 48.1905 552.526 46.6588 555.406 45.5559C558.285 44.4531 561.41 43.9017 564.78 43.9017C568.885 43.9017 572.5 44.6675 575.624 46.1993C578.749 47.6697 581.169 49.7529 582.885 52.4487C584.662 55.0833 585.55 58.1773 585.55 61.7309V95H574.154V86.453L576.727 86.2692C575.441 88.4136 573.909 90.221 572.132 91.6915C570.355 93.1007 568.333 94.2035 566.066 95C563.799 95.7352 561.287 96.1028 558.53 96.1028ZM596.677 95V45.0045H607.982V56.1248L607.063 54.4706C608.227 50.7332 610.034 48.1292 612.485 46.6588C614.997 45.1883 617.999 44.4531 621.491 44.4531H624.432V55.1139H620.113C616.682 55.1139 613.925 56.1861 611.842 58.3305C609.758 60.4137 608.717 63.3546 608.717 67.1532V95H596.677ZM655.13 96.1028C650.167 96.1028 645.695 94.9694 641.712 92.7024C637.791 90.3742 634.697 87.2495 632.43 83.3283C630.163 79.3458 629.03 74.8731 629.03 69.9104C629.03 64.9476 630.163 60.5056 632.43 56.5844C634.697 52.6631 637.791 49.5691 641.712 47.3021C645.695 45.0351 650.167 43.9017 655.13 43.9017C658.684 43.9017 661.992 44.545 665.056 45.8316C668.119 47.057 670.754 48.7726 672.959 50.9782C675.226 53.1227 676.85 55.6959 677.83 58.6981L667.261 63.2933C666.342 60.7813 664.78 58.7594 662.574 57.2277C660.43 55.6959 657.949 54.9301 655.13 54.9301C652.496 54.9301 650.137 55.5734 648.054 56.8601C646.032 58.1467 644.439 59.9235 643.275 62.1905C642.111 64.4574 641.529 67.0613 641.529 70.0023C641.529 72.9432 642.111 75.5471 643.275 77.8141C644.439 80.081 646.032 81.8578 648.054 83.1445C650.137 84.4311 652.496 85.0744 655.13 85.0744C658.01 85.0744 660.522 84.3086 662.666 82.7768C664.811 81.2451 666.342 79.1926 667.261 76.6193L677.83 81.3983C676.85 84.2167 675.257 86.7593 673.051 89.0263C670.846 91.232 668.211 92.9781 665.148 94.2648C662.084 95.4902 658.745 96.1028 655.13 96.1028ZM686.965 95V25.4291H699.005V54.8382L697.351 53.092C698.515 50.0898 700.414 47.8229 703.049 46.2912C705.744 44.6982 708.869 43.9017 712.423 43.9017C716.099 43.9017 719.346 44.6982 722.164 46.2912C725.044 47.8842 727.28 50.1205 728.873 53.0001C730.466 55.8185 731.263 59.0964 731.263 62.8338V95H719.224V65.6828C719.224 63.4771 718.795 61.5778 717.937 59.9848C717.079 58.3918 715.884 57.1664 714.353 56.3086C712.882 55.3896 711.136 54.9301 709.114 54.9301C707.154 54.9301 705.407 55.3896 703.876 56.3086C702.344 57.1664 701.149 58.3918 700.291 59.9848C699.434 61.5778 699.005 63.4771 699.005 65.6828V95H686.965Z"/>
</mask>
<path d="M166.352 95V26.5319H176.094L213.775 77.2626L208.72 78.2736V26.5319H221.219V95H211.385L174.256 43.9017L178.851 42.8907V95H166.352ZM257.908 96.1028C253.006 96.1028 248.533 94.9694 244.49 92.7024C240.507 90.4355 237.321 87.3414 234.932 83.4202C232.604 79.4989 231.439 75.0263 231.439 70.0023C231.439 64.9782 232.604 60.5056 234.932 56.5844C237.321 52.6631 240.507 49.5691 244.49 47.3021C248.472 45.0351 252.945 43.9017 257.908 43.9017C262.809 43.9017 267.251 45.0351 271.234 47.3021C275.216 49.5691 278.371 52.6631 280.7 56.5844C283.089 60.4443 284.284 64.9169 284.284 70.0023C284.284 75.0263 283.089 79.4989 280.7 83.4202C278.31 87.3414 275.124 90.4355 271.142 92.7024C267.159 94.9694 262.748 96.1028 257.908 96.1028ZM257.908 85.0744C260.603 85.0744 262.962 84.4311 264.984 83.1445C267.067 81.8578 268.691 80.081 269.855 77.8141C271.08 75.4858 271.693 72.8819 271.693 70.0023C271.693 67.0613 271.08 64.488 269.855 62.2824C268.691 60.0154 267.067 58.2386 264.984 56.952C262.962 55.604 260.603 54.9301 257.908 54.9301C255.151 54.9301 252.73 55.604 250.647 56.952C248.564 58.2386 246.91 60.0154 245.684 62.2824C244.52 64.488 243.938 67.0613 243.938 70.0023C243.938 72.8819 244.52 75.4858 245.684 77.8141C246.91 80.081 248.564 81.8578 250.647 83.1445C252.73 84.4311 255.151 85.0744 257.908 85.0744ZM316.666 96.1028C311.825 96.1028 307.506 94.9694 303.707 92.7024C299.908 90.3742 296.906 87.2188 294.701 83.2364C292.495 79.2539 291.392 74.8425 291.392 70.0023C291.392 65.1007 292.495 60.6894 294.701 56.7682C296.906 52.8469 299.908 49.7222 303.707 47.394C307.567 45.0658 311.856 43.9017 316.574 43.9017C320.372 43.9017 323.742 44.6675 326.683 46.1993C329.685 47.6697 332.044 49.7529 333.76 52.4487L331.922 54.9301V25.4291H343.961V95H332.565V85.3501L333.852 87.7396C332.136 90.4355 329.746 92.5186 326.683 93.9891C323.62 95.3982 320.28 96.1028 316.666 96.1028ZM317.952 85.0744C320.709 85.0744 323.129 84.4311 325.213 83.1445C327.296 81.8578 328.919 80.081 330.083 77.8141C331.309 75.5471 331.922 72.9432 331.922 70.0023C331.922 67.1226 331.309 64.5493 330.083 62.2824C328.919 59.9541 327.296 58.1467 325.213 56.8601C323.129 55.5734 320.709 54.9301 317.952 54.9301C315.256 54.9301 312.836 55.604 310.692 56.952C308.547 58.2386 306.863 60.0154 305.637 62.2824C304.473 64.488 303.891 67.0613 303.891 70.0023C303.891 72.9432 304.473 75.5471 305.637 77.8141C306.863 80.081 308.547 81.8578 310.692 83.1445C312.836 84.4311 315.256 85.0744 317.952 85.0744ZM378.873 96.1028C373.726 96.1028 369.223 94.9387 365.363 92.6105C361.503 90.2823 358.501 87.1269 356.356 83.1445C354.212 79.162 353.14 74.7506 353.14 69.9104C353.14 64.8863 354.212 60.4443 356.356 56.5844C358.562 52.6631 361.534 49.5691 365.271 47.3021C369.07 45.0351 373.297 43.9017 377.954 43.9017C381.875 43.9017 385.306 44.545 388.247 45.8316C391.249 47.1183 393.792 48.8951 395.875 51.162C397.958 53.429 399.551 56.0329 400.654 58.9738C401.757 61.8535 402.308 64.9782 402.308 68.348C402.308 69.2058 402.247 70.0942 402.124 71.0132C402.063 71.9322 401.91 72.7287 401.665 73.4027H363.065V64.2123H394.864L389.166 68.5318C389.717 65.7134 389.564 63.2014 388.706 60.9957C387.91 58.79 386.562 57.0439 384.663 55.7572C382.825 54.4706 380.588 53.8272 377.954 53.8272C375.442 53.8272 373.205 54.4706 371.245 55.7572C369.284 56.9826 367.783 58.8207 366.741 61.2714C365.761 63.6609 365.394 66.5712 365.639 70.0023C365.394 73.0657 365.792 75.7922 366.833 78.1817C367.936 80.5099 369.529 82.3173 371.612 83.604C373.757 84.8906 376.208 85.5339 378.965 85.5339C381.722 85.5339 384.05 84.9519 385.949 83.7878C387.91 82.6237 389.442 81.0613 390.544 79.1007L400.286 83.8797C399.306 86.2692 397.774 88.383 395.691 90.221C393.608 92.0591 391.126 93.4989 388.247 94.5405C385.428 95.5821 382.304 96.1028 378.873 96.1028ZM453.226 96.1028C448.876 96.1028 444.832 95.3063 441.095 93.7134C437.419 92.1204 434.233 89.9147 431.537 87.0963C428.902 84.2167 426.972 80.8775 425.747 77.0788L436.132 72.5756C437.786 76.4968 440.176 79.5909 443.301 81.8578C446.425 84.0635 449.948 85.1663 453.87 85.1663C456.075 85.1663 457.975 84.8293 459.568 84.1554C461.222 83.4202 462.478 82.4399 463.336 81.2145C464.255 79.9891 464.714 78.5186 464.714 76.8031C464.714 74.7812 464.101 73.127 462.876 71.8403C461.712 70.4924 459.935 69.4508 457.546 68.7156L444.403 64.488C439.073 62.8338 435.06 60.3524 432.364 57.0439C429.668 53.7353 428.32 49.8448 428.32 45.3721C428.32 41.4509 429.27 37.9892 431.169 34.987C433.13 31.9849 435.826 29.6566 439.257 28.0024C442.749 26.2868 446.732 25.4291 451.204 25.4291C455.309 25.4291 459.077 26.1643 462.508 27.6348C465.939 29.0439 468.88 31.0352 471.331 33.6085C473.843 36.1205 475.712 39.0921 476.937 42.5231L466.644 47.1183C465.296 43.6872 463.274 41.0527 460.578 39.2146C457.883 37.3153 454.758 36.3656 451.204 36.3656C449.121 36.3656 447.283 36.7332 445.69 37.4684C444.097 38.1424 442.841 39.1227 441.922 40.4093C441.064 41.6347 440.635 43.1052 440.635 44.8207C440.635 46.72 441.248 48.4049 442.473 49.8754C443.699 51.2846 445.568 52.3874 448.08 53.1839L460.67 57.1358C466.123 58.9126 470.198 61.3633 472.894 64.488C475.651 67.6128 477.029 71.4727 477.029 76.0679C477.029 79.9891 476.018 83.4508 473.996 86.453C471.974 89.4552 469.187 91.814 465.633 93.5295C462.08 95.2451 457.944 96.1028 453.226 96.1028ZM510.984 96.1028C505.837 96.1028 501.334 94.9387 497.474 92.6105C493.614 90.2823 490.612 87.1269 488.468 83.1445C486.323 79.162 485.251 74.7506 485.251 69.9104C485.251 64.8863 486.323 60.4443 488.468 56.5844C490.673 52.6631 493.645 49.5691 497.382 47.3021C501.181 45.0351 505.408 43.9017 510.065 43.9017C513.986 43.9017 517.417 44.545 520.358 45.8316C523.36 47.1183 525.903 48.8951 527.986 51.162C530.069 53.429 531.662 56.0329 532.765 58.9738C533.868 61.8535 534.419 64.9782 534.419 68.348C534.419 69.2058 534.358 70.0942 534.236 71.0132C534.174 71.9322 534.021 72.7287 533.776 73.4027H495.177V64.2123H526.975L521.277 68.5318C521.829 65.7134 521.675 63.2014 520.818 60.9957C520.021 58.79 518.673 57.0439 516.774 55.7572C514.936 54.4706 512.699 53.8272 510.065 53.8272C507.553 53.8272 505.317 54.4706 503.356 55.7572C501.395 56.9826 499.894 58.8207 498.853 61.2714C497.872 63.6609 497.505 66.5712 497.75 70.0023C497.505 73.0657 497.903 75.7922 498.945 78.1817C500.047 80.5099 501.64 82.3173 503.724 83.604C505.868 84.8906 508.319 85.5339 511.076 85.5339C513.833 85.5339 516.161 84.9519 518.06 83.7878C520.021 82.6237 521.553 81.0613 522.656 79.1007L532.397 83.8797C531.417 86.2692 529.885 88.383 527.802 90.221C525.719 92.0591 523.238 93.4989 520.358 94.5405C517.54 95.5821 514.415 96.1028 510.984 96.1028ZM558.53 96.1028C555.038 96.1028 552.005 95.5208 549.432 94.3567C546.859 93.1926 544.867 91.5383 543.458 89.3939C542.049 87.1882 541.344 84.6455 541.344 81.7659C541.344 79.0088 541.957 76.558 543.182 74.4136C544.408 72.2079 546.307 70.3699 548.88 68.8994C551.454 67.429 554.701 66.3874 558.622 65.7747L574.981 63.1095V72.2998L560.92 74.6893C558.53 75.1182 556.754 75.8841 555.589 76.9869C554.425 78.0898 553.843 79.5296 553.843 81.3064C553.843 83.0219 554.487 84.4005 555.773 85.442C557.121 86.4223 558.775 86.9125 560.736 86.9125C563.248 86.9125 565.454 86.3917 567.353 85.3501C569.314 84.2473 570.815 82.7462 571.856 80.8469C572.959 78.9475 573.511 76.8644 573.511 74.5974V61.7309C573.511 59.5865 572.653 57.8097 570.937 56.4005C569.283 54.9301 567.077 54.1949 564.32 54.1949C561.747 54.1949 559.449 54.8995 557.428 56.3086C555.467 57.6566 554.027 59.464 553.108 61.7309L543.274 56.952C544.255 54.3174 545.786 52.0504 547.87 50.1511C550.014 48.1905 552.526 46.6588 555.406 45.5559C558.285 44.4531 561.41 43.9017 564.78 43.9017C568.885 43.9017 572.5 44.6675 575.624 46.1993C578.749 47.6697 581.169 49.7529 582.885 52.4487C584.662 55.0833 585.55 58.1773 585.55 61.7309V95H574.154V86.453L576.727 86.2692C575.441 88.4136 573.909 90.221 572.132 91.6915C570.355 93.1007 568.333 94.2035 566.066 95C563.799 95.7352 561.287 96.1028 558.53 96.1028ZM596.677 95V45.0045H607.982V56.1248L607.063 54.4706C608.227 50.7332 610.034 48.1292 612.485 46.6588C614.997 45.1883 617.999 44.4531 621.491 44.4531H624.432V55.1139H620.113C616.682 55.1139 613.925 56.1861 611.842 58.3305C609.758 60.4137 608.717 63.3546 608.717 67.1532V95H596.677ZM655.13 96.1028C650.167 96.1028 645.695 94.9694 641.712 92.7024C637.791 90.3742 634.697 87.2495 632.43 83.3283C630.163 79.3458 629.03 74.8731 629.03 69.9104C629.03 64.9476 630.163 60.5056 632.43 56.5844C634.697 52.6631 637.791 49.5691 641.712 47.3021C645.695 45.0351 650.167 43.9017 655.13 43.9017C658.684 43.9017 661.992 44.545 665.056 45.8316C668.119 47.057 670.754 48.7726 672.959 50.9782C675.226 53.1227 676.85 55.6959 677.83 58.6981L667.261 63.2933C666.342 60.7813 664.78 58.7594 662.574 57.2277C660.43 55.6959 657.949 54.9301 655.13 54.9301C652.496 54.9301 650.137 55.5734 648.054 56.8601C646.032 58.1467 644.439 59.9235 643.275 62.1905C642.111 64.4574 641.529 67.0613 641.529 70.0023C641.529 72.9432 642.111 75.5471 643.275 77.8141C644.439 80.081 646.032 81.8578 648.054 83.1445C650.137 84.4311 652.496 85.0744 655.13 85.0744C658.01 85.0744 660.522 84.3086 662.666 82.7768C664.811 81.2451 666.342 79.1926 667.261 76.6193L677.83 81.3983C676.85 84.2167 675.257 86.7593 673.051 89.0263C670.846 91.232 668.211 92.9781 665.148 94.2648C662.084 95.4902 658.745 96.1028 655.13 96.1028ZM686.965 95V25.4291H699.005V54.8382L697.351 53.092C698.515 50.0898 700.414 47.8229 703.049 46.2912C705.744 44.6982 708.869 43.9017 712.423 43.9017C716.099 43.9017 719.346 44.6982 722.164 46.2912C725.044 47.8842 727.28 50.1205 728.873 53.0001C730.466 55.8185 731.263 59.0964 731.263 62.8338V95H719.224V65.6828C719.224 63.4771 718.795 61.5778 717.937 59.9848C717.079 58.3918 715.884 57.1664 714.353 56.3086C712.882 55.3896 711.136 54.9301 709.114 54.9301C707.154 54.9301 705.407 55.3896 703.876 56.3086C702.344 57.1664 701.149 58.3918 700.291 59.9848C699.434 61.5778 699.005 63.4771 699.005 65.6828V95H686.965Z" fill="white"/>
<path d="M166.352 95H165.352V96H166.352V95ZM166.352 26.5319V25.5319H165.352V26.5319H166.352ZM176.094 26.5319L176.897 25.9356L176.597 25.5319H176.094V26.5319ZM213.775 77.2626L213.971 78.2432L215.519 77.9336L214.577 76.6664L213.775 77.2626ZM208.72 78.2736H207.72V79.4934L208.916 79.2542L208.72 78.2736ZM208.72 26.5319V25.5319H207.72V26.5319H208.72ZM221.219 26.5319H222.219V25.5319H221.219V26.5319ZM221.219 95V96H222.219V95H221.219ZM211.385 95L210.576 95.5878L210.876 96H211.385V95ZM174.256 43.9017L174.041 42.925L172.549 43.2533L173.447 44.4895L174.256 43.9017ZM178.851 42.8907H179.851V41.6468L178.636 41.9141L178.851 42.8907ZM178.851 95V96H179.851V95H178.851ZM167.352 95V26.5319H165.352V95H167.352ZM166.352 27.5319H176.094V25.5319H166.352V27.5319ZM175.291 27.1282L212.972 77.8589L214.577 76.6664L176.897 25.9356L175.291 27.1282ZM213.578 76.2821L208.524 77.293L208.916 79.2542L213.971 78.2432L213.578 76.2821ZM209.72 78.2736V26.5319H207.72V78.2736H209.72ZM208.72 27.5319H221.219V25.5319H208.72V27.5319ZM220.219 26.5319V95H222.219V26.5319H220.219ZM221.219 94H211.385V96H221.219V94ZM212.194 94.4122L175.065 43.3138L173.447 44.4895L210.576 95.5878L212.194 94.4122ZM174.471 44.8783L179.066 43.8674L178.636 41.9141L174.041 42.925L174.471 44.8783ZM177.851 42.8907V95H179.851V42.8907H177.851ZM178.851 94H166.352V96H178.851V94ZM244.49 92.7024L243.995 93.5715L244.001 93.5747L244.49 92.7024ZM234.932 83.4202L234.072 83.9307L234.078 83.9405L234.932 83.4202ZM234.932 56.5844L234.078 56.0639L234.072 56.0738L234.932 56.5844ZM244.49 47.3021L243.995 46.433L244.49 47.3021ZM271.234 47.3021L271.728 46.433L271.234 47.3021ZM280.7 56.5844L279.84 57.0949L279.845 57.1028L279.849 57.1107L280.7 56.5844ZM280.7 83.4202L281.554 83.9405L280.7 83.4202ZM271.142 92.7024L271.636 93.5715L271.142 92.7024ZM264.984 83.1445L264.459 82.2936L264.447 82.3008L264.984 83.1445ZM269.855 77.814L268.97 77.3483L268.966 77.3572L269.855 77.814ZM269.855 62.2824L268.966 62.7392L268.973 62.7537L268.981 62.768L269.855 62.2824ZM264.984 56.952L264.43 57.784L264.444 57.7936L264.459 57.8028L264.984 56.952ZM250.647 56.952L251.173 57.8028L251.182 57.7972L251.191 57.7915L250.647 56.952ZM245.684 62.2824L244.805 61.8068L244.8 61.8156L245.684 62.2824ZM245.684 77.814L244.79 78.2613L244.797 78.2755L244.805 78.2896L245.684 77.814ZM250.647 83.1445L251.173 82.2937L250.647 83.1445ZM257.908 95.1028C253.167 95.1028 248.864 94.0085 244.979 91.8301L244.001 93.5747C248.202 95.9302 252.845 97.1028 257.908 97.1028V95.1028ZM244.984 91.8334C241.15 89.6505 238.087 86.6765 235.786 82.8998L234.078 83.9405C236.555 88.0062 239.865 91.2205 243.995 93.5715L244.984 91.8334ZM235.792 82.9096C233.564 79.1583 232.439 74.8654 232.439 70.0023H230.439C230.439 75.1872 231.643 79.8396 234.072 83.9307L235.792 82.9096ZM232.439 70.0023C232.439 65.1391 233.564 60.8462 235.792 57.0949L234.072 56.0738C231.643 60.1649 230.439 64.8173 230.439 70.0023H232.439ZM235.786 57.1047C238.087 53.328 241.15 50.354 244.984 48.1712L243.995 46.433C239.865 48.7841 236.555 51.9983 234.078 56.064L235.786 57.1047ZM244.984 48.1712C248.804 45.9971 253.103 44.9017 257.908 44.9017V42.9017C252.786 42.9017 248.141 44.0732 243.995 46.433L244.984 48.1712ZM257.908 44.9017C262.648 44.9017 266.918 45.996 270.739 48.1712L271.728 46.433C267.585 44.0743 262.97 42.9017 257.908 42.9017V44.9017ZM270.739 48.1712C274.571 50.3527 277.601 53.3236 279.84 57.0949L281.56 56.0738C279.142 52.0027 275.861 48.7854 271.728 46.433L270.739 48.1712ZM279.849 57.1107C282.13 60.7941 283.284 65.0799 283.284 70.0023H285.284C285.284 64.754 284.049 60.0945 281.55 56.058L279.849 57.1107ZM283.284 70.0023C283.284 74.8606 282.131 79.1499 279.846 82.8998L281.554 83.9405C284.048 79.848 285.284 75.192 285.284 70.0023H283.284ZM279.846 82.8998C277.544 86.6765 274.482 89.6505 270.647 91.8334L271.636 93.5715C275.767 91.2205 279.076 88.0062 281.554 83.9405L279.846 82.8998ZM270.647 91.8334C266.824 94.0096 262.585 95.1028 257.908 95.1028V97.1028C262.911 97.1028 267.495 95.9291 271.636 93.5715L270.647 91.8334ZM257.908 86.0744C260.769 86.0744 263.319 85.3893 265.521 83.9881L264.447 82.3008C262.605 83.473 260.438 84.0744 257.908 84.0744V86.0744ZM265.51 83.9952C267.754 82.6089 269.501 80.6929 270.745 78.2709L268.966 77.3572C267.881 79.4691 266.38 81.1067 264.459 82.2937L265.51 83.9952ZM270.74 78.2798C272.048 75.7947 272.693 73.0285 272.693 70.0023H270.693C270.693 72.7353 270.113 75.1769 268.97 77.3483L270.74 78.2798ZM272.693 70.0023C272.693 66.9197 272.05 64.1739 270.729 61.7967L268.981 62.768C270.111 64.8022 270.693 67.203 270.693 70.0023H272.693ZM270.745 61.8256C269.501 59.4035 267.754 57.4875 265.51 56.1012L264.459 57.8028C266.38 58.9897 267.881 60.6273 268.966 62.7392L270.745 61.8256ZM265.539 56.1199C263.335 54.6507 260.778 53.9301 257.908 53.9301V55.9301C260.428 55.9301 262.59 56.5574 264.43 57.784L265.539 56.1199ZM257.908 53.9301C254.98 53.9301 252.367 54.6483 250.104 56.1124L251.191 57.7915C253.094 56.5598 255.321 55.9301 257.908 55.9301V53.9301ZM250.122 56.1012C247.882 57.4847 246.109 59.3944 244.805 61.8069L246.564 62.7579C247.711 60.6365 249.246 58.9926 251.173 57.8028L250.122 56.1012ZM244.8 61.8156C243.548 64.1889 242.938 66.9278 242.938 70.0023H244.938C244.938 67.1949 245.493 64.7872 246.569 62.7491L244.8 61.8156ZM242.938 70.0023C242.938 73.0204 243.549 75.78 244.79 78.2613L246.579 77.3668C245.491 75.1917 244.938 72.7434 244.938 70.0023H242.938ZM244.805 78.2896C246.109 80.7021 247.882 82.6118 250.122 83.9952L251.173 82.2937C249.246 81.1038 247.711 79.46 246.564 77.3385L244.805 78.2896ZM250.122 83.9952C252.382 85.3913 254.989 86.0744 257.908 86.0744V84.0744C255.312 84.0744 253.079 83.4709 251.173 82.2937L250.122 83.9952ZM303.707 92.7024L303.185 93.5551L303.195 93.5611L303.707 92.7024ZM294.701 83.2364L295.575 82.7519L294.701 83.2364ZM294.701 56.7682L295.572 57.2584H295.572L294.701 56.7682ZM303.707 47.394L303.191 46.5377L303.185 46.5414L303.707 47.394ZM326.683 46.1993L326.221 47.0862L326.232 47.0919L326.243 47.0973L326.683 46.1993ZM333.76 52.4487L334.563 53.0439L334.972 52.4916L334.603 51.9118L333.76 52.4487ZM331.922 54.9301H330.922V57.9601L332.725 55.5253L331.922 54.9301ZM331.922 25.4291V24.4291H330.922V25.4291H331.922ZM343.961 25.4291H344.961V24.4291H343.961V25.4291ZM343.961 95V96H344.961V95H343.961ZM332.565 95H331.565V96H332.565V95ZM332.565 85.3501L333.445 84.876L331.565 85.3501H332.565ZM333.852 87.7396L334.695 88.2765L335.01 87.7818L334.732 87.2655L333.852 87.7396ZM326.683 93.9891L327.101 94.8976L327.108 94.8941L327.116 94.8906L326.683 93.9891ZM325.213 83.1445L324.687 82.2937L325.213 83.1445ZM330.083 77.814L329.204 77.3385L329.199 77.3478L329.194 77.3572L330.083 77.814ZM330.083 62.2824L329.189 62.7296L329.196 62.7438L329.204 62.7579L330.083 62.2824ZM325.213 56.8601L324.687 57.7109L325.213 56.8601ZM310.692 56.952L311.206 57.8095L311.215 57.8041L311.224 57.7986L310.692 56.952ZM305.637 62.2824L304.757 61.8068L304.753 61.8156L305.637 62.2824ZM305.637 77.814L304.748 78.2709L304.752 78.2803L304.757 78.2896L305.637 77.814ZM310.692 83.1445L311.206 82.287L310.692 83.1445ZM316.666 95.1028C311.988 95.1028 307.849 94.0096 304.22 91.8437L303.195 93.5611C307.163 95.9291 311.662 97.1028 316.666 97.1028V95.1028ZM304.23 91.8498C300.582 89.6139 297.699 86.5867 295.575 82.7519L293.826 83.7209C296.113 87.851 299.235 91.1345 303.185 93.555L304.23 91.8498ZM295.575 82.7519C293.457 78.927 292.392 74.6841 292.392 70.0023H290.392C290.392 75.0009 291.533 79.5807 293.826 83.7209L295.575 82.7519ZM292.392 70.0023C292.392 65.2567 293.458 61.0168 295.572 57.2584L293.829 56.2779C291.532 60.362 290.392 64.9448 290.392 70.0023H292.392ZM295.572 57.2584C297.695 53.4842 300.578 50.4849 304.23 48.2466L303.185 46.5414C299.239 48.9596 296.117 52.2097 293.829 56.2779L295.572 57.2584ZM304.224 48.2503C307.92 46.0206 312.029 44.9017 316.574 44.9017V42.9017C311.683 42.9017 307.214 44.111 303.191 46.5377L304.224 48.2503ZM316.574 44.9017C320.235 44.9017 323.442 45.6389 326.221 47.0862L327.145 45.3123C324.042 43.6961 320.51 42.9017 316.574 42.9017V44.9017ZM326.243 47.0973C329.088 48.4907 331.304 50.4523 332.916 52.9856L334.603 51.9118C332.784 49.0534 330.282 46.8487 327.123 45.3012L326.243 47.0973ZM332.956 51.8535L331.118 54.3349L332.725 55.5253L334.563 53.0439L332.956 51.8535ZM332.922 54.9301V25.4291H330.922V54.9301H332.922ZM331.922 26.4291H343.961V24.4291H331.922V26.4291ZM342.961 25.4291V95H344.961V25.4291H342.961ZM343.961 94H332.565V96H343.961V94ZM333.565 95V85.3501H331.565V95H333.565ZM331.684 85.8242L332.971 88.2137L334.732 87.2655L333.445 84.876L331.684 85.8242ZM333.008 87.2028C331.399 89.7309 329.157 91.6925 326.25 93.0875L327.116 94.8906C330.336 93.3447 332.873 91.14 334.695 88.2765L333.008 87.2028ZM326.265 93.0806C323.342 94.4252 320.147 95.1028 316.666 95.1028V97.1028C320.414 97.1028 323.897 96.3713 327.101 94.8976L326.265 93.0806ZM317.952 86.0744C320.871 86.0744 323.478 85.3913 325.738 83.9952L324.687 82.2937C322.781 83.4709 320.548 84.0744 317.952 84.0744V86.0744ZM325.738 83.9952C327.983 82.6089 329.729 80.6929 330.973 78.2709L329.194 77.3572C328.109 79.4691 326.609 81.1067 324.687 82.2937L325.738 83.9952ZM330.963 78.2896C332.278 75.857 332.922 73.0855 332.922 70.0023H330.922C330.922 72.8008 330.34 75.2372 329.204 77.3385L330.963 78.2896ZM332.922 70.0023C332.922 66.9764 332.276 64.2364 330.963 61.8069L329.204 62.7579C330.341 64.8623 330.922 67.2688 330.922 70.0023H332.922ZM330.978 61.8352C329.736 59.3517 327.989 57.3998 325.738 56.0093L324.687 57.7109C326.602 58.8936 328.103 60.5566 329.189 62.7296L330.978 61.8352ZM325.738 56.0093C323.478 54.6132 320.871 53.9301 317.952 53.9301V55.9301C320.548 55.9301 322.781 56.5336 324.687 57.7109L325.738 56.0093ZM317.952 53.9301C315.081 53.9301 312.474 54.6507 310.16 56.1053L311.224 57.7986C313.199 56.5574 315.432 55.9301 317.952 55.9301V53.9301ZM310.177 56.0945C307.874 57.4763 306.065 59.3872 304.757 61.8069L306.517 62.7579C307.66 60.6437 309.221 59.0009 311.206 57.8095L310.177 56.0945ZM304.753 61.8156C303.5 64.1889 302.891 66.9278 302.891 70.0023H304.891C304.891 67.1949 305.446 64.7872 306.522 62.7491L304.753 61.8156ZM302.891 70.0023C302.891 73.0775 303.5 75.8422 304.748 78.2709L306.527 77.3572C305.446 75.252 304.891 72.8088 304.891 70.0023H302.891ZM304.757 78.2896C306.065 80.7093 307.874 82.6201 310.177 84.0019L311.206 82.287C309.221 81.0955 307.66 79.4528 306.517 77.3385L304.757 78.2896ZM310.177 84.0019C312.489 85.3891 315.09 86.0744 317.952 86.0744V84.0744C315.423 84.0744 313.183 83.4731 311.206 82.287L310.177 84.0019ZM365.363 92.6105L364.846 93.4668L365.363 92.6105ZM356.356 83.1445L357.237 82.6703L356.356 83.1445ZM356.356 56.5844L355.485 56.0941L355.482 56.0987L356.356 56.5844ZM365.271 47.3021L364.759 46.4434L364.752 46.4471L365.271 47.3021ZM388.247 45.8316L387.846 46.7478L387.853 46.7508L388.247 45.8316ZM395.875 51.162L395.139 51.8387L395.875 51.162ZM400.654 58.9738L399.717 59.325L399.72 59.3315L400.654 58.9738ZM402.124 71.0132L401.133 70.881L401.129 70.9137L401.126 70.9467L402.124 71.0132ZM401.665 73.4027V74.4027H402.365L402.605 73.7444L401.665 73.4027ZM363.065 73.4027H362.065V74.4027H363.065V73.4027ZM363.065 64.2123V63.2123H362.065V64.2123H363.065ZM394.864 64.2123L395.468 65.0092L397.838 63.2123H394.864V64.2123ZM389.166 68.5318L388.184 68.3398L387.681 70.9121L389.77 69.3287L389.166 68.5318ZM388.706 60.9957L387.766 61.3354L387.77 61.3468L387.774 61.3582L388.706 60.9957ZM384.663 55.7572L384.089 56.5765L384.095 56.5808L384.102 56.5851L384.663 55.7572ZM371.245 55.7572L371.775 56.6052L371.784 56.5993L371.793 56.5933L371.245 55.7572ZM366.741 61.2714L365.821 60.8803L365.816 60.8919L366.741 61.2714ZM365.639 70.0023L366.635 70.082L366.641 70.0065L366.636 69.931L365.639 70.0023ZM366.833 78.1817L365.917 78.5813L365.923 78.5956L365.93 78.6097L366.833 78.1817ZM371.612 83.604L371.087 84.4548L371.098 84.4615L371.612 83.604ZM385.949 83.7878L385.439 82.9278L385.427 82.9352L385.949 83.7878ZM390.544 79.1007L390.985 78.2029L390.136 77.7866L389.673 78.6104L390.544 79.1007ZM400.286 83.8797L401.211 84.2592L401.566 83.3939L400.727 82.9819L400.286 83.8797ZM395.691 90.221L396.353 90.9709L395.691 90.221ZM388.247 94.5405L387.907 93.6001L387.9 93.6025L388.247 94.5405ZM378.873 95.1028C373.882 95.1028 369.562 93.9757 365.879 91.7542L364.846 93.4668C368.883 95.9018 373.57 97.1028 378.873 97.1028V95.1028ZM365.879 91.7542C362.173 89.5188 359.297 86.4957 357.237 82.6703L355.476 83.6186C357.705 87.7582 360.833 91.0457 364.846 93.4668L365.879 91.7542ZM357.237 82.6703C355.176 78.8437 354.14 74.5971 354.14 69.9104H352.14C352.14 74.9042 353.248 79.4802 355.476 83.6186L357.237 82.6703ZM354.14 69.9104C354.14 65.0325 355.179 60.7619 357.231 57.07L355.482 56.0987C353.244 60.1267 352.14 64.7401 352.14 69.9104H354.14ZM357.228 57.0746C359.352 53.2987 362.204 50.3322 365.79 48.1571L364.752 46.4471C360.863 48.8059 357.772 52.0275 355.485 56.0941L357.228 57.0746ZM365.783 48.1608C369.419 45.9913 373.468 44.9017 377.954 44.9017V42.9017C373.127 42.9017 368.72 44.079 364.759 46.4434L365.783 48.1608ZM377.954 44.9017C381.767 44.9017 385.056 45.5273 387.846 46.7478L388.648 44.9155C385.556 43.5627 381.983 42.9017 377.954 42.9017V44.9017ZM387.853 46.7508C390.733 47.9852 393.157 49.6821 395.139 51.8387L396.611 50.4854C394.427 48.1081 391.765 46.2514 388.641 44.9125L387.853 46.7508ZM395.139 51.8387C397.133 54.009 398.659 56.5019 399.717 59.325L401.59 58.6227C400.443 55.5639 398.783 52.8489 396.611 50.4854L395.139 51.8387ZM399.72 59.3315C400.775 62.0868 401.308 65.0891 401.308 68.348H403.308C403.308 64.8673 402.738 61.6202 401.588 58.6162L399.72 59.3315ZM401.308 68.348C401.308 69.1582 401.25 70.0023 401.133 70.881L403.116 71.1454C403.243 70.186 403.308 69.2533 403.308 68.348H401.308ZM401.126 70.9467C401.07 71.7969 400.93 72.4965 400.725 73.0609L402.605 73.7444C402.889 72.9609 403.056 72.0675 403.122 71.0797L401.126 70.9467ZM401.665 72.4027H363.065V74.4027H401.665V72.4027ZM364.065 73.4027V64.2123H362.065V73.4027H364.065ZM363.065 65.2123H394.864V63.2123H363.065V65.2123ZM394.26 63.4154L388.562 67.7349L389.77 69.3287L395.468 65.0092L394.26 63.4154ZM390.147 68.7238C390.727 65.7596 390.578 63.0498 389.638 60.6333L387.774 61.3582C388.55 63.353 388.707 65.6673 388.184 68.3398L390.147 68.7238ZM389.647 60.6561C388.78 58.2563 387.302 56.3373 385.223 54.9293L384.102 56.5851C385.822 57.7505 387.039 59.3237 387.766 61.3354L389.647 60.6561ZM385.236 54.938C383.202 53.5142 380.757 52.8272 377.954 52.8272V54.8272C380.42 54.8272 382.447 55.4269 384.089 56.5765L385.236 54.938ZM377.954 52.8272C375.261 52.8272 372.831 53.5199 370.696 54.9212L371.793 56.5933C373.579 55.4213 375.622 54.8272 377.954 54.8272V52.8272ZM370.715 54.9092C368.555 56.2591 366.93 58.2704 365.821 60.8803L367.662 61.6626C368.636 59.3709 370.013 57.7061 371.775 56.6052L370.715 54.9092ZM365.816 60.8919C364.761 63.4633 364.389 66.5374 364.641 70.0735L366.636 69.931C366.398 66.605 366.761 63.8585 367.667 61.651L365.816 60.8919ZM364.642 69.9225C364.386 73.1205 364.799 76.0161 365.917 78.5813L367.75 77.7821C366.785 75.5682 366.401 73.0109 366.635 70.082L364.642 69.9225ZM365.93 78.6097C367.111 81.1029 368.831 83.0613 371.087 84.4548L372.138 82.7532C370.228 81.5734 368.762 79.9169 367.737 77.7536L365.93 78.6097ZM371.098 84.4615C373.413 85.8507 376.045 86.5339 378.965 86.5339V84.5339C376.37 84.5339 374.1 83.9305 372.127 82.7465L371.098 84.4615ZM378.965 86.5339C381.862 86.5339 384.382 85.9214 386.472 84.6404L385.427 82.9352C383.718 83.9824 381.581 84.5339 378.965 84.5339V86.5339ZM386.46 84.6476C388.569 83.3954 390.226 81.7064 391.416 79.591L389.673 78.6104C388.657 80.4162 387.251 81.852 385.439 82.9279L386.46 84.6476ZM390.104 79.9985L399.846 84.7775L400.727 82.9819L390.985 78.2029L390.104 79.9985ZM399.361 83.5001C398.443 85.737 397.006 87.7268 395.029 89.4712L396.353 90.9709C398.542 89.0391 400.168 86.8013 401.211 84.2592L399.361 83.5001ZM395.029 89.4712C393.05 91.218 390.68 92.5969 387.907 93.6001L388.587 95.4809C391.573 94.4009 394.166 92.9002 396.353 90.9709L395.029 89.4712ZM387.9 93.6025C385.207 94.5977 382.202 95.1028 378.873 95.1028V97.1028C382.405 97.1028 385.65 96.5664 388.594 95.4785L387.9 93.6025ZM441.095 93.7133L440.697 94.6309L440.703 94.6333L441.095 93.7133ZM431.537 87.0963L430.799 87.7713L430.807 87.7795L430.814 87.7875L431.537 87.0963ZM425.747 77.0788L425.349 76.1614L424.517 76.5223L424.795 77.3858L425.747 77.0788ZM436.132 72.5756L437.053 72.1869L436.661 71.2563L435.734 71.6581L436.132 72.5756ZM443.301 81.8578L442.713 82.6673L442.724 82.6748L443.301 81.8578ZM459.568 84.1554L459.957 85.0764L459.965 85.0729L459.974 85.0692L459.568 84.1554ZM463.336 81.2145L462.536 80.6145L462.526 80.6276L462.516 80.641L463.336 81.2145ZM462.876 71.8403L462.119 72.4939L462.135 72.5124L462.152 72.53L462.876 71.8403ZM457.546 68.7156L457.239 69.6676L457.252 69.6714L457.546 68.7156ZM444.403 64.488L444.71 63.536L444.7 63.533L444.403 64.488ZM432.364 57.0439L433.139 56.4122L432.364 57.0439ZM431.169 34.987L430.332 34.4402L430.328 34.4463L430.324 34.4524L431.169 34.987ZM439.257 28.0024L439.691 28.9032L439.698 28.8999L439.257 28.0024ZM462.508 27.6348L462.115 28.5539L462.121 28.5569L462.129 28.5598L462.508 27.6348ZM471.331 33.6085L470.607 34.2981L470.615 34.307L470.624 34.3156L471.331 33.6085ZM476.937 42.5231L477.345 43.4363L478.19 43.0588L477.879 42.1868L476.937 42.5231ZM466.644 47.1183L465.713 47.4839L466.096 48.4581L467.052 48.0314L466.644 47.1183ZM460.578 39.2146L460.003 40.0321L460.009 40.0365L460.015 40.0408L460.578 39.2146ZM445.69 37.4684L446.08 38.3894L446.095 38.3831L446.109 38.3764L445.69 37.4684ZM441.922 40.4093L441.108 39.8281L441.103 39.8359L441.922 40.4093ZM442.473 49.8754L441.705 50.5156L441.712 50.5236L441.719 50.5316L442.473 49.8754ZM448.08 53.1839L447.777 54.1372L447.78 54.138L448.08 53.1839ZM460.67 57.1358L460.98 56.1849L460.97 56.1817L460.67 57.1358ZM472.894 64.488L472.136 65.1413L472.144 65.1497L472.894 64.488ZM473.996 86.453L474.826 87.0116L473.996 86.453ZM465.633 93.5295L466.068 94.4301L465.633 93.5295ZM453.226 95.1028C449.001 95.1028 445.092 94.3299 441.487 92.7934L440.703 94.6333C444.573 96.2828 448.751 97.1028 453.226 97.1028V95.1028ZM441.493 92.7958C437.935 91.2543 434.861 89.1244 432.26 86.4051L430.814 87.7875C433.605 90.7049 436.902 92.9864 440.697 94.6309L441.493 92.7958ZM432.275 86.4213C429.739 83.65 427.881 80.4371 426.699 76.7718L424.795 77.3858C426.064 81.3179 428.065 84.7833 430.799 87.7713L432.275 86.4213ZM426.145 77.9963L436.53 73.493L435.734 71.6581L425.349 76.1614L426.145 77.9963ZM435.211 72.9643C436.928 77.0358 439.426 80.2824 442.713 82.6672L443.888 81.0484C440.926 78.8993 438.644 75.9577 437.053 72.1869L435.211 72.9643ZM442.724 82.6748C446.022 85.0027 449.747 86.1663 453.87 86.1663V84.1663C450.149 84.1663 446.829 83.1243 443.877 81.0408L442.724 82.6748ZM453.87 86.1663C456.174 86.1663 458.212 85.8147 459.957 85.0764L459.178 83.2344C457.737 83.844 455.977 84.1663 453.87 84.1663V86.1663ZM459.974 85.0692C461.759 84.2757 463.173 83.1907 464.155 81.7879L462.516 80.641C461.783 81.689 460.685 82.5646 459.161 83.2416L459.974 85.0692ZM464.136 81.8145C465.2 80.3954 465.714 78.7077 465.714 76.8031H463.714C463.714 78.3295 463.309 79.5828 462.536 80.6145L464.136 81.8145ZM465.714 76.8031C465.714 74.5627 465.027 72.6492 463.6 71.1507L462.152 72.53C463.175 73.6047 463.714 74.9998 463.714 76.8031H465.714ZM463.633 71.1867C462.306 69.6502 460.339 68.529 457.84 67.7598L457.252 69.6714C459.531 70.3727 461.118 71.3346 462.119 72.4939L463.633 71.1867ZM457.852 67.7636L444.71 63.5361L444.097 65.44L457.239 69.6676L457.852 67.7636ZM444.7 63.533C439.5 61.9193 435.678 59.5276 433.139 56.4122L431.589 57.6755C434.442 61.1772 438.646 63.7482 444.107 65.4431L444.7 63.533ZM433.139 56.4122C430.596 53.2911 429.32 49.6266 429.32 45.3721H427.32C427.32 50.063 428.74 54.1796 431.589 57.6755L433.139 56.4122ZM429.32 45.3721C429.32 41.6199 430.227 38.3475 432.014 35.5217L430.324 34.4524C428.313 37.6309 427.32 41.282 427.32 45.3721H429.32ZM432.007 35.5338C433.861 32.6937 436.414 30.4834 439.691 28.9031L438.823 27.1016C435.238 28.8298 432.399 31.276 430.332 34.4402L432.007 35.5338ZM439.698 28.8999C443.034 27.2612 446.862 26.4291 451.204 26.4291V24.4291C446.602 24.4291 442.465 25.3125 438.816 27.1048L439.698 28.8999ZM451.204 26.4291C455.187 26.4291 458.82 27.1419 462.115 28.5539L462.902 26.7156C459.335 25.1867 455.431 24.4291 451.204 24.4291V26.4291ZM462.129 28.5598C465.435 29.918 468.257 31.8311 470.607 34.2981L472.055 32.9188C469.503 30.2393 466.444 28.1699 462.888 26.7097L462.129 28.5598ZM470.624 34.3156C473.029 36.7202 474.819 39.5642 475.996 42.8595L477.879 42.1868C476.605 38.62 474.658 35.5208 472.038 32.9014L470.624 34.3156ZM476.53 41.61L466.236 46.2052L467.052 48.0314L477.345 43.4363L476.53 41.61ZM467.575 46.7526C466.163 43.1598 464.025 40.3539 461.142 38.3884L460.015 40.0408C462.524 41.7514 464.429 44.2147 465.713 47.4839L467.575 46.7526ZM461.154 38.3971C458.277 36.3697 454.947 35.3656 451.204 35.3656V37.3656C454.569 37.3656 457.489 38.2609 460.003 40.0321L461.154 38.3971ZM451.204 35.3656C449.003 35.3656 447.018 35.7543 445.271 36.5605L446.109 38.3764C447.548 37.7121 449.239 37.3656 451.204 37.3656V35.3656ZM445.3 36.5475C443.554 37.2864 442.145 38.3773 441.108 39.8281L442.736 40.9906C443.538 39.8681 444.64 38.9984 446.08 38.3894L445.3 36.5475ZM441.103 39.8359C440.111 41.2532 439.635 42.9312 439.635 44.8207H441.635C441.635 43.2792 442.018 42.0162 442.741 40.9828L441.103 39.8359ZM439.635 44.8207C439.635 46.956 440.331 48.8669 441.705 50.5156L443.242 49.2352C442.165 47.9429 441.635 46.4841 441.635 44.8207H439.635ZM441.719 50.5316C443.105 52.1252 445.159 53.3068 447.777 54.1372L448.382 52.2307C445.976 51.468 444.293 50.4439 443.228 49.2192L441.719 50.5316ZM447.78 54.138L460.371 58.0899L460.97 56.1817L448.379 52.2298L447.78 54.138ZM460.361 58.0866C465.705 59.8279 469.597 62.1984 472.136 65.1413L473.651 63.8348C470.798 60.5282 466.542 57.9972 460.98 56.185L460.361 58.0866ZM472.144 65.1497C474.723 68.0724 476.029 71.6894 476.029 76.0679H478.029C478.029 71.256 476.579 67.1531 473.643 63.8264L472.144 65.1497ZM476.029 76.0679C476.029 79.8074 475.068 83.0711 473.167 85.8944L474.826 87.0116C476.968 83.8305 478.029 80.1708 478.029 76.0679H476.029ZM473.167 85.8944C471.253 88.7365 468.607 90.9833 465.198 92.629L466.068 94.4301C469.766 92.6447 472.696 90.1738 474.826 87.0116L473.167 85.8944ZM465.198 92.629C461.804 94.2675 457.822 95.1028 453.226 95.1028V97.1028C458.065 97.1028 462.355 96.2227 466.068 94.4301L465.198 92.629ZM497.474 92.6105L496.958 93.4668L497.474 92.6105ZM488.468 83.1445L489.348 82.6703L488.468 83.1445ZM488.468 56.5844L487.596 56.0941L487.593 56.0987L488.468 56.5844ZM497.382 47.3021L496.87 46.4434L496.864 46.4471L497.382 47.3021ZM520.358 45.8316L519.957 46.7478L519.964 46.7508L520.358 45.8316ZM527.986 51.162L527.25 51.8387L527.986 51.162ZM532.765 58.9738L531.829 59.325L531.831 59.3315L532.765 58.9738ZM534.236 71.0132L533.244 70.881L533.24 70.9137L533.238 70.9467L534.236 71.0132ZM533.776 73.4027V74.4027H534.476L534.716 73.7444L533.776 73.4027ZM495.177 73.4027H494.177V74.4027H495.177V73.4027ZM495.177 64.2123V63.2123H494.177V64.2123H495.177ZM526.975 64.2123L527.579 65.0092L529.95 63.2123H526.975V64.2123ZM521.277 68.5318L520.296 68.3398L519.792 70.9121L521.881 69.3287L521.277 68.5318ZM520.818 60.9957L519.877 61.3354L519.881 61.3468L519.886 61.3582L520.818 60.9957ZM516.774 55.7572L516.2 56.5765L516.207 56.5808L516.213 56.5851L516.774 55.7572ZM503.356 55.7572L503.886 56.6052L503.895 56.5993L503.905 56.5933L503.356 55.7572ZM498.853 61.2714L497.932 60.8803L497.927 60.8919L498.853 61.2714ZM497.75 70.0023L498.747 70.082L498.753 70.0065L498.747 69.931L497.75 70.0023ZM498.945 78.1817L498.028 78.5813L498.034 78.5956L498.041 78.6097L498.945 78.1817ZM503.724 83.604L503.198 84.4548L503.209 84.4615L503.724 83.604ZM518.06 83.7878L517.55 82.9278L517.538 82.9352L518.06 83.7878ZM522.656 79.1007L523.096 78.2029L522.247 77.7866L521.784 78.6104L522.656 79.1007ZM532.397 83.8797L533.323 84.2592L533.678 83.3939L532.838 82.9819L532.397 83.8797ZM527.802 90.221L528.464 90.9709L527.802 90.221ZM520.358 94.5405L520.018 93.6001L520.011 93.6025L520.358 94.5405ZM510.984 95.1028C505.993 95.1028 501.674 93.9757 497.991 91.7542L496.958 93.4668C500.995 95.9018 505.682 97.1028 510.984 97.1028V95.1028ZM497.991 91.7542C494.285 89.5188 491.408 86.4957 489.348 82.6703L487.587 83.6186C489.816 87.7582 492.944 91.0457 496.958 93.4668L497.991 91.7542ZM489.348 82.6703C487.288 78.8437 486.251 74.5971 486.251 69.9104H484.251C484.251 74.9042 485.359 79.4802 487.587 83.6186L489.348 82.6703ZM486.251 69.9104C486.251 65.0325 487.291 60.7619 489.342 57.07L487.593 56.0987C485.356 60.1267 484.251 64.7401 484.251 69.9104H486.251ZM489.339 57.0746C491.463 53.2987 494.315 50.3322 497.901 48.1571L496.864 46.4471C492.975 48.8059 489.883 52.0275 487.596 56.0941L489.339 57.0746ZM497.895 48.1608C501.53 45.9913 505.579 44.9017 510.065 44.9017V42.9017C505.238 42.9017 500.832 44.079 496.87 46.4434L497.895 48.1608ZM510.065 44.9017C513.878 44.9017 517.167 45.5273 519.957 46.7478L520.759 44.9155C517.667 43.5627 514.094 42.9017 510.065 42.9017V44.9017ZM519.964 46.7508C522.844 47.9852 525.268 49.6821 527.25 51.8387L528.722 50.4854C526.538 48.1081 523.876 46.2514 520.752 44.9125L519.964 46.7508ZM527.25 51.8387C529.244 54.009 530.77 56.5019 531.829 59.325L533.701 58.6227C532.554 55.5639 530.894 52.8489 528.722 50.4854L527.25 51.8387ZM531.831 59.3315C532.886 62.0868 533.419 65.0891 533.419 68.348H535.419C535.419 64.8673 534.849 61.6202 533.699 58.6162L531.831 59.3315ZM533.419 68.348C533.419 69.1582 533.361 70.0023 533.244 70.881L535.227 71.1454C535.355 70.186 535.419 69.2533 535.419 68.348H533.419ZM533.238 70.9467C533.181 71.7969 533.041 72.4965 532.836 73.0609L534.716 73.7444C535.001 72.9609 535.167 72.0675 535.233 71.0797L533.238 70.9467ZM533.776 72.4027H495.177V74.4027H533.776V72.4027ZM496.177 73.4027V64.2123H494.177V73.4027H496.177ZM495.177 65.2123H526.975V63.2123H495.177V65.2123ZM526.371 63.4154L520.673 67.7349L521.881 69.3287L527.579 65.0092L526.371 63.4154ZM522.259 68.7238C522.838 65.7596 522.689 63.0498 521.75 60.6333L519.886 61.3582C520.661 63.353 520.819 65.6673 520.296 68.3398L522.259 68.7238ZM521.758 60.6561C520.892 58.2563 519.413 56.3373 517.335 54.9293L516.213 56.5851C517.933 57.7505 519.151 59.3237 519.877 61.3354L521.758 60.6561ZM517.347 54.938C515.313 53.5142 512.868 52.8272 510.065 52.8272V54.8272C512.531 54.8272 514.558 55.4269 516.2 56.5765L517.347 54.938ZM510.065 52.8272C507.372 52.8272 504.943 53.5199 502.807 54.9212L503.905 56.5933C505.69 55.4213 507.733 54.8272 510.065 54.8272V52.8272ZM502.826 54.9092C500.666 56.2591 499.042 58.2704 497.932 60.8803L499.773 61.6626C500.747 59.3709 502.125 57.7061 503.886 56.6052L502.826 54.9092ZM497.927 60.8919C496.873 63.4633 496.5 66.5374 496.752 70.0735L498.747 69.931C498.51 66.605 498.872 63.8585 499.778 61.651L497.927 60.8919ZM496.753 69.9225C496.497 73.1205 496.91 76.0161 498.028 78.5813L499.861 77.7821C498.896 75.5682 498.512 73.0109 498.747 70.082L496.753 69.9225ZM498.041 78.6097C499.222 81.1029 500.942 83.0613 503.198 84.4548L504.249 82.7532C502.339 81.5734 500.873 79.9169 499.848 77.7536L498.041 78.6097ZM503.209 84.4615C505.525 85.8507 508.157 86.5339 511.076 86.5339V84.5339C508.481 84.5339 506.211 83.9305 504.238 82.7465L503.209 84.4615ZM511.076 86.5339C513.974 86.5339 516.493 85.9214 518.583 84.6404L517.538 82.9352C515.829 83.9824 513.692 84.5339 511.076 84.5339V86.5339ZM518.571 84.6476C520.68 83.3954 522.337 81.7064 523.527 79.591L521.784 78.6104C520.768 80.4162 519.362 81.852 517.55 82.9279L518.571 84.6476ZM522.215 79.9985L531.957 84.7775L532.838 82.9819L523.096 78.2029L522.215 79.9985ZM531.472 83.5001C530.555 85.737 529.118 87.7268 527.141 89.4712L528.464 90.9709C530.653 89.0391 532.28 86.8013 533.323 84.2592L531.472 83.5001ZM527.141 89.4712C525.161 91.218 522.792 92.5969 520.018 93.6001L520.698 95.4809C523.684 94.4009 526.277 92.9002 528.464 90.9709L527.141 89.4712ZM520.011 93.6025C517.319 94.5977 514.313 95.1028 510.984 95.1028V97.1028C514.517 97.1028 517.761 96.5664 520.705 95.4785L520.011 93.6025ZM549.432 94.3567L549.02 95.2678L549.432 94.3567ZM543.458 89.3939L542.615 89.9323L542.622 89.9431L543.458 89.3939ZM543.182 74.4136L544.051 74.9098L544.057 74.8993L543.182 74.4136ZM548.88 68.8994L549.377 69.7677V69.7677L548.88 68.8994ZM558.622 65.7747L558.777 66.7627L558.783 66.7617L558.622 65.7747ZM574.981 63.1095H575.981V61.9334L574.82 62.1225L574.981 63.1095ZM574.981 72.2998L575.149 73.2857L575.981 73.1442V72.2998H574.981ZM560.92 74.6893L560.752 73.7034L560.743 73.7051L560.92 74.6893ZM555.589 76.9869L554.902 76.261V76.261L555.589 76.9869ZM555.773 85.442L555.144 86.2193L555.164 86.2356L555.185 86.2508L555.773 85.442ZM567.353 85.3501L567.834 86.227L567.843 86.2217L567.353 85.3501ZM571.856 80.8469L570.992 80.3447L570.985 80.3553L570.98 80.366L571.856 80.8469ZM570.937 56.4005L570.273 57.148L570.288 57.1609L570.303 57.1733L570.937 56.4005ZM557.427 56.3086L557.994 57.1327L557.999 57.129L557.427 56.3086ZM553.108 61.7309L552.671 62.6304L553.633 63.0979L554.035 62.1066L553.108 61.7309ZM543.274 56.952L542.337 56.6032L542.02 57.4544L542.837 57.8514L543.274 56.952ZM547.87 50.1511L548.543 50.8901L548.544 50.8891L547.87 50.1511ZM555.406 45.5559L555.048 44.6221L555.406 45.5559ZM575.624 46.1993L575.184 47.0972L575.191 47.1007L575.199 47.1041L575.624 46.1993ZM582.885 52.4487L582.041 52.9856L582.048 52.9968L582.056 53.0078L582.885 52.4487ZM585.55 95V96H586.55V95H585.55ZM574.154 95H573.154V96H574.154V95ZM574.154 86.453L574.083 85.4555L573.154 85.5219V86.453H574.154ZM576.727 86.2692L577.585 86.7837L578.574 85.1347L576.656 85.2717L576.727 86.2692ZM572.132 91.6915L572.753 92.475L572.762 92.4685L572.77 92.4619L572.132 91.6915ZM566.066 95L566.375 95.9512L566.386 95.9475L566.398 95.9435L566.066 95ZM558.53 95.1028C555.147 95.1028 552.261 94.5389 549.844 93.4456L549.02 95.2678C551.749 96.5026 554.929 97.1028 558.53 97.1028V95.1028ZM549.844 93.4456C547.425 92.3514 545.589 90.8151 544.294 88.8447L542.622 89.9431C544.146 92.2616 546.292 94.0337 549.02 95.2678L549.844 93.4456ZM544.301 88.8555C543.005 86.8265 542.344 84.4746 542.344 81.7659H540.344C540.344 84.8165 541.093 87.5499 542.615 89.9323L544.301 88.8555ZM542.344 81.7659C542.344 79.1621 542.921 76.8861 544.051 74.9098L542.314 73.9175C540.993 76.23 540.344 78.8555 540.344 81.7659H542.344ZM544.057 74.8993C545.179 72.8793 546.934 71.1635 549.377 69.7677L548.384 68.0312C545.68 69.5762 543.637 71.5366 542.308 73.928L544.057 74.8993ZM549.377 69.7677C551.815 68.3742 554.937 67.3626 558.777 66.7627L558.468 64.7867C554.465 65.4122 551.092 66.4837 548.384 68.0312L549.377 69.7677ZM558.783 66.7617L575.142 64.0965L574.82 62.1225L558.461 64.7877L558.783 66.7617ZM573.981 63.1095V72.2998H575.981V63.1095H573.981ZM574.814 71.314L560.752 73.7035L561.087 75.6752L575.149 73.2857L574.814 71.314ZM560.743 73.7051C558.254 74.1519 556.263 74.9716 554.902 76.261L556.277 77.7129C557.244 76.7965 558.807 76.0846 561.096 75.6736L560.743 73.7051ZM554.902 76.261C553.516 77.5741 552.843 79.2878 552.843 81.3064H554.843C554.843 79.7714 555.335 78.6054 556.277 77.7129L554.902 76.261ZM552.843 81.3064C552.843 83.311 553.613 84.98 555.144 86.2193L556.402 84.6648C555.36 83.8209 554.843 82.7328 554.843 81.3064H552.843ZM555.185 86.2508C556.733 87.3762 558.603 87.9125 560.736 87.9125V85.9125C558.948 85.9125 557.51 85.4685 556.361 84.6333L555.185 86.2508ZM560.736 87.9125C563.389 87.9125 565.765 87.3614 567.834 86.227L566.872 84.4733C565.142 85.422 563.107 85.9125 560.736 85.9125V87.9125ZM567.843 86.2217C569.96 85.031 571.598 83.3973 572.733 81.3277L570.98 80.366C570.031 82.0951 568.667 83.4636 566.863 84.4786L567.843 86.2217ZM572.721 81.349C573.915 79.2921 574.511 77.0348 574.511 74.5974H572.511C572.511 76.6939 572.003 78.603 570.992 80.3447L572.721 81.349ZM574.511 74.5974V61.7309H572.511V74.5974H574.511ZM574.511 61.7309C574.511 59.2753 573.509 57.2192 571.572 55.6278L570.303 57.1733C571.796 58.4002 572.511 59.8978 572.511 61.7309H574.511ZM571.602 55.6531C569.722 53.9827 567.26 53.1949 564.32 53.1949V55.1949C566.895 55.1949 568.844 55.8774 570.273 57.148L571.602 55.6531ZM564.32 53.1949C561.552 53.1949 559.053 53.9568 556.856 55.4882L557.999 57.129C559.846 55.8421 561.942 55.1949 564.32 55.1949V53.1949ZM556.861 55.4846C554.734 56.9467 553.172 58.9122 552.181 61.3552L554.035 62.1066C554.882 60.0158 556.2 58.3664 557.994 57.1327L556.861 55.4846ZM553.545 60.8315L543.711 56.0525L542.837 57.8514L552.671 62.6304L553.545 60.8315ZM544.212 57.3007C545.136 54.8158 546.577 52.6825 548.543 50.8901L547.196 49.4122C544.995 51.4184 543.373 53.819 542.337 56.6032L544.212 57.3007ZM548.544 50.8891C550.591 49.0182 552.993 47.5506 555.763 46.4898L555.048 44.6221C552.059 45.767 549.437 47.3628 547.195 49.4131L548.544 50.8891ZM555.763 46.4898C558.519 45.4346 561.521 44.9017 564.78 44.9017V42.9017C561.299 42.9017 558.052 43.4716 555.048 44.6221L555.763 46.4898ZM564.78 44.9017C568.759 44.9017 572.219 45.6437 575.184 47.0972L576.065 45.3013C572.78 43.6914 569.01 42.9017 564.78 42.9017V44.9017ZM575.199 47.1041C578.166 48.5007 580.435 50.4624 582.041 52.9856L583.728 51.9118C581.903 49.0433 579.332 46.8387 576.05 45.2944L575.199 47.1041ZM582.056 53.0078C583.708 55.458 584.55 58.3521 584.55 61.7309H586.55C586.55 58.0026 585.615 54.7085 583.714 51.8895L582.056 53.0078ZM584.55 61.7309V95H586.55V61.7309H584.55ZM585.55 94H574.154V96H585.55V94ZM575.154 95V86.453H573.154V95H575.154ZM574.225 87.4504L576.798 87.2666L576.656 85.2717L574.083 85.4555L574.225 87.4504ZM575.87 85.7547C574.636 87.8101 573.177 89.5287 571.495 90.9211L572.77 92.4619C574.641 90.9133 576.245 89.017 577.585 86.7837L575.87 85.7547ZM571.511 90.908C569.826 92.2441 567.903 93.2947 565.735 94.0565L566.398 95.9435C568.763 95.1123 570.885 93.9572 572.753 92.475L571.511 90.908ZM565.758 94.0488C563.605 94.7471 561.199 95.1028 558.53 95.1028V97.1028C561.376 97.1028 563.994 96.7234 566.375 95.9512L565.758 94.0488ZM596.677 95H595.677V96H596.677V95ZM596.677 45.0045V44.0045H595.677V45.0045H596.677ZM607.982 45.0045H608.982V44.0045H607.982V45.0045ZM607.982 56.1248L607.107 56.6105L608.982 59.984V56.1248H607.982ZM607.063 54.4706L606.108 54.1732L605.98 54.582L606.188 54.9562L607.063 54.4706ZM612.485 46.6588L611.98 45.7957L611.97 45.8013L612.485 46.6588ZM624.432 44.4531H625.432V43.4531H624.432V44.4531ZM624.432 55.1139V56.1139H625.432V55.1139H624.432ZM611.842 58.3305L612.549 59.0376L612.554 59.0325L612.559 59.0273L611.842 58.3305ZM608.717 95V96H609.717V95H608.717ZM597.677 95V45.0045H595.677V95H597.677ZM596.677 46.0045H607.982V44.0045H596.677V46.0045ZM606.982 45.0045V56.1248H608.982V45.0045H606.982ZM608.856 55.6392L607.937 53.9849L606.188 54.9562L607.107 56.6105L608.856 55.6392ZM608.017 54.768C609.136 51.1778 610.826 48.8202 612.999 47.5163L611.97 45.8013C609.242 47.4382 607.318 50.2885 606.108 54.1732L608.017 54.768ZM612.99 47.5218C615.321 46.1574 618.141 45.4531 621.491 45.4531V43.4531C617.857 43.4531 614.673 44.2192 611.98 45.7958L612.99 47.5218ZM621.491 45.4531H624.432V43.4531H621.491V45.4531ZM623.432 44.4531V55.1139H625.432V44.4531H623.432ZM624.432 54.1139H620.113V56.1139H624.432V54.1139ZM620.113 54.1139C616.455 54.1139 613.424 55.2663 611.124 57.6337L612.559 59.0273C614.425 57.1059 616.909 56.1139 620.113 56.1139V54.1139ZM611.134 57.6234C608.814 59.9441 607.717 63.1696 607.717 67.1533H609.717C609.717 63.5396 610.703 60.8832 612.549 59.0376L611.134 57.6234ZM607.717 67.1533V95H609.717V67.1533H607.717ZM608.717 94H596.677V96H608.717V94ZM641.712 92.7024L641.202 93.5623L641.21 93.5669L641.218 93.5715L641.712 92.7024ZM632.43 83.3283L631.561 83.823L631.564 83.8288L632.43 83.3283ZM632.43 56.5844L633.296 57.0849L632.43 56.5844ZM641.712 47.3021L641.218 46.433L641.212 46.4364L641.712 47.3021ZM665.056 45.8316L664.669 46.7536L664.676 46.7569L664.684 46.7601L665.056 45.8316ZM672.959 50.9782L672.252 51.6853L672.262 51.6952L672.272 51.7047L672.959 50.9782ZM677.83 58.6981L678.229 59.6152L679.063 59.2525L678.781 58.3877L677.83 58.6981ZM667.261 63.2933L666.322 63.6369L666.687 64.6335L667.66 64.2104L667.261 63.2933ZM662.574 57.2277L661.993 58.0415L662.004 58.049L662.574 57.2277ZM648.054 56.8601L647.528 56.0092L647.517 56.0164L648.054 56.8601ZM643.275 62.1905L642.385 61.7337V61.7337L643.275 62.1905ZM643.275 77.814L642.385 78.2709L643.275 77.814ZM648.054 83.1445L647.517 83.9882L647.528 83.9952L648.054 83.1445ZM662.666 82.7768L663.248 83.5906L662.666 82.7768ZM667.261 76.6193L667.673 75.7081L666.685 75.261L666.32 76.283L667.261 76.6193ZM677.83 81.3983L678.775 81.7268L679.075 80.8636L678.242 80.4871L677.83 81.3983ZM673.051 89.0263L673.759 89.7334L673.768 89.7236L673.051 89.0263ZM665.148 94.2648L665.519 95.1933L665.527 95.1901L665.535 95.1868L665.148 94.2648ZM655.13 95.1028C650.326 95.1028 646.026 94.0074 642.207 91.8334L641.218 93.5715C645.363 95.9313 650.009 97.1028 655.13 97.1028V95.1028ZM642.223 91.8426C638.448 89.6011 635.476 86.5997 633.296 82.8278L631.564 83.8288C633.918 87.8993 637.134 91.1473 641.202 93.5623L642.223 91.8426ZM633.299 82.8336C631.125 79.0142 630.03 74.7145 630.03 69.9104H628.03C628.03 75.0318 629.201 79.6773 631.561 83.823L633.299 82.8336ZM630.03 69.9104C630.03 65.106 631.125 60.8396 633.296 57.0849L631.564 56.0838C629.201 60.1715 628.03 64.7891 628.03 69.9104H630.03ZM633.296 57.0849C635.475 53.3153 638.443 50.3471 642.213 48.1678L641.212 46.4364C637.139 48.791 633.919 52.011 631.564 56.0838L633.296 57.0849ZM642.207 48.1712C646.026 45.9971 650.326 44.9017 655.13 44.9017V42.9017C650.009 42.9017 645.363 44.0732 641.218 46.433L642.207 48.1712ZM655.13 44.9017C658.56 44.9017 661.736 45.522 664.669 46.7536L665.443 44.9097C662.249 43.568 658.807 42.9017 655.13 42.9017V44.9017ZM664.684 46.7601C667.629 47.9382 670.148 49.5809 672.252 51.6853L673.667 50.2711C671.36 47.9642 668.609 46.1759 665.427 44.9032L664.684 46.7601ZM672.272 51.7047C674.417 53.7331 675.951 56.1628 676.88 59.0085L678.781 58.3877C677.75 55.2291 676.036 52.5122 673.647 50.2518L672.272 51.7047ZM677.432 57.7811L666.863 62.3762L667.66 64.2104L678.229 59.6152L677.432 57.7811ZM668.201 62.9497C667.211 60.2434 665.519 58.055 663.145 56.4063L662.004 58.049C664.041 59.4638 665.474 61.3191 666.322 63.6369L668.201 62.9497ZM663.156 56.4139C660.83 54.7525 658.142 53.9301 655.13 53.9301V55.9301C657.755 55.9301 660.03 56.6394 661.993 58.0414L663.156 56.4139ZM655.13 53.9301C652.325 53.9301 649.781 54.6176 647.528 56.0093L648.579 57.7109C650.492 56.5292 652.667 55.9301 655.13 55.9301V53.9301ZM647.517 56.0164C645.336 57.4045 643.625 59.3191 642.385 61.7337L644.164 62.6473C645.253 60.5279 646.728 58.8889 648.591 57.7037L647.517 56.0164ZM642.385 61.7337C641.138 64.1623 640.529 66.927 640.529 70.0023H642.529C642.529 67.1957 643.083 64.7525 644.164 62.6473L642.385 61.7337ZM640.529 70.0023C640.529 73.0775 641.138 75.8422 642.385 78.2709L644.164 77.3572C643.083 75.252 642.529 72.8088 642.529 70.0023H640.529ZM642.385 78.2709C643.625 80.6854 645.336 82.6 647.517 83.9881L648.591 82.3008C646.728 81.1156 645.253 79.4766 644.164 77.3572L642.385 78.2709ZM647.528 83.9952C649.781 85.3869 652.325 86.0744 655.13 86.0744V84.0744C652.667 84.0744 650.492 83.4753 648.579 82.2937L647.528 83.9952ZM655.13 86.0744C658.198 86.0744 660.918 85.2547 663.248 83.5906L662.085 81.9631C660.126 83.3624 657.822 84.0744 655.13 84.0744V86.0744ZM663.248 83.5906C665.564 81.9357 667.218 79.7136 668.203 76.9556L666.32 76.283C665.467 78.6716 664.057 80.5546 662.085 81.9631L663.248 83.5906ZM666.849 77.5305L677.418 82.3095L678.242 80.4871L667.673 75.7081L666.849 77.5305ZM676.886 81.0698C675.956 83.7418 674.445 86.1604 672.335 88.3289L673.768 89.7236C676.07 87.3583 677.744 84.6915 678.775 81.7268L676.886 81.0698ZM672.344 88.3192C670.236 90.4273 667.712 92.103 664.76 93.3428L665.535 95.1868C668.71 93.8532 671.455 92.0366 673.758 89.7334L672.344 88.3192ZM664.776 93.3363C661.842 94.5101 658.63 95.1028 655.13 95.1028V97.1028C658.86 97.1028 662.327 96.4702 665.519 95.1933L664.776 93.3363ZM686.965 95H685.965V96H686.965V95ZM686.965 25.4291V24.4291H685.965V25.4291H686.965ZM699.005 25.4291H700.005V24.4291H699.005V25.4291ZM699.005 54.8382L698.279 55.5259L700.005 57.3478V54.8382H699.005ZM697.351 53.092L696.418 52.7305L696.189 53.3204L696.625 53.7798L697.351 53.092ZM703.049 46.2912L703.551 47.1557L703.557 47.1521L703.049 46.2912ZM722.164 46.2912L721.672 47.1618L721.68 47.1662L722.164 46.2912ZM728.873 53.0001L727.998 53.4842L728.003 53.4922L728.873 53.0001ZM731.263 95V96H732.263V95H731.263ZM719.224 95H718.224V96H719.224V95ZM717.937 59.9848L718.817 59.5107L717.937 59.9848ZM714.353 56.3086L713.823 57.1566L713.843 57.1694L713.864 57.1811L714.353 56.3086ZM703.876 56.3086L704.364 57.1811L704.377 57.1738L704.39 57.1661L703.876 56.3086ZM700.291 59.9848L701.172 60.4589L700.291 59.9848ZM699.005 95V96H700.005V95H699.005ZM687.965 95V25.4291H685.965V95H687.965ZM686.965 26.4291H699.005V24.4291H686.965V26.4291ZM698.005 25.4291V54.8382H700.005V25.4291H698.005ZM699.731 54.1504L698.076 52.4043L696.625 53.7798L698.279 55.5259L699.731 54.1504ZM698.283 53.4535C699.37 50.65 701.124 48.5666 703.551 47.1557L702.546 45.4267C699.704 47.0792 697.659 49.5296 696.418 52.7305L698.283 53.4535ZM703.557 47.1521C706.079 45.6619 709.023 44.9017 712.423 44.9017V42.9017C708.715 42.9017 705.41 43.7344 702.54 45.4302L703.557 47.1521ZM712.423 44.9017C715.95 44.9017 719.024 45.6645 721.672 47.1617L722.656 45.4206C719.669 43.7318 716.247 42.9017 712.423 42.9017V44.9017ZM721.68 47.1662C724.396 48.6682 726.496 50.769 727.998 53.4842L729.748 52.5161C728.064 49.4719 725.693 47.1001 722.648 45.4161L721.68 47.1662ZM728.003 53.4922C729.499 56.1386 730.263 59.2419 730.263 62.8338H732.263C732.263 58.9509 731.434 55.4984 729.744 52.5081L728.003 53.4922ZM730.263 62.8338V95H732.263V62.8338H730.263ZM731.263 94H719.224V96H731.263V94ZM720.224 95V65.6828H718.224V95H720.224ZM720.224 65.6828C720.224 63.3475 719.769 61.278 718.817 59.5107L717.056 60.4589C717.82 61.8775 718.224 63.6067 718.224 65.6828H720.224ZM718.817 59.5107C717.872 57.7557 716.544 56.3897 714.841 55.4361L713.864 57.1811C715.225 57.9431 716.286 59.0278 717.056 60.4589L718.817 59.5107ZM714.883 55.4606C713.228 54.4267 711.292 53.9301 709.114 53.9301V55.9301C710.98 55.9301 712.536 56.3525 713.823 57.1566L714.883 55.4606ZM709.114 53.9301C706.991 53.9301 705.063 54.4299 703.361 55.4511L704.39 57.1661C705.752 56.3493 707.317 55.9301 709.114 55.9301V53.9301ZM703.387 55.4361C701.684 56.3897 700.356 57.7557 699.411 59.5107L701.172 60.4589C701.942 59.0278 703.004 57.9431 704.364 57.1811L703.387 55.4361ZM699.411 59.5107C698.459 61.278 698.005 63.3475 698.005 65.6828H700.005C700.005 63.6067 700.408 61.8775 701.172 60.4589L699.411 59.5107ZM698.005 65.6828V95H700.005V65.6828H698.005ZM699.005 94H686.965V96H699.005V94Z" fill="black" mask="url(#path-1-outside-1_25_21)"/>
</g>
<path d="M116.098 67.5336C105.92 67.5336 97.0557 74.4814 94.6245 84.3654L92.7449 92.0069L82.1088 77.9597C92.7681 77.9597 101.323 69.1573 101.019 58.5023L100.865 53.1162L116.098 67.5336Z" fill="white"/>
<path d="M60.2354 49.6649L64.103 63.648C66.442 72.1044 74.1371 77.9601 82.9111 77.9601L71.6737 90.4015L69.1249 79.7951C66.9304 70.6633 59.1545 63.9494 49.8003 63.11L60.2354 49.6649Z" fill="white"/>
<circle cx="116.371" cy="52.028" r="15.5054" fill="white"/>
<circle cx="82.3673" cy="88.7514" r="10.881" fill="white"/>
<path d="M15.7788 73.4378C25.9574 73.4378 34.8213 66.4899 37.2525 56.606L39.1321 48.9645L49.7682 63.0117C39.1088 63.0117 30.5542 71.814 30.8584 82.469L31.0121 87.8552L15.7788 73.4378Z" fill="white"/>
<circle cx="15.5053" cy="88.9433" r="15.5054" transform="rotate(180 15.5053 88.9433)" fill="white"/>
<circle cx="49.5077" cy="52.2199" r="10.881" transform="rotate(180 49.5077 52.2199)" fill="white"/>
<path d="M116.098 67.5336C105.92 67.5336 97.0557 74.4814 94.6245 84.3654L92.7449 92.0069L82.1088 77.9597C92.7681 77.9597 101.323 69.1573 101.019 58.5023L100.865 53.1162L116.098 67.5336Z" fill="white"/>
<path d="M60.2354 49.6649L64.103 63.648C66.442 72.1044 74.1371 77.9601 82.9111 77.9601L71.6737 90.4015L69.1249 79.7951C66.9304 70.6633 59.1545 63.9494 49.8003 63.11L60.2354 49.6649Z" fill="white"/>
<circle cx="116.371" cy="52.028" r="15.5054" fill="white"/>
<circle cx="82.3673" cy="88.7514" r="10.881" fill="white"/>
<path d="M15.7788 73.4378C25.9574 73.4378 34.8213 66.4899 37.2525 56.606L39.1321 48.9645L49.7682 63.0117C39.1088 63.0117 30.5542 71.814 30.8584 82.469L31.0121 87.8552L15.7788 73.4378Z" fill="white"/>
<circle cx="15.5053" cy="88.9433" r="15.5054" transform="rotate(180 15.5053 88.9433)" fill="white"/>
<circle cx="49.5077" cy="52.2199" r="10.881" transform="rotate(180 49.5077 52.2199)" fill="white"/>
<defs>
<filter id="filter0_d_25_21" x="162.353" y="25.4291" width="572.91" height="78.6738" filterUnits="userSpaceOnUse" color-interpolation-filters="sRGB">
<feFlood flood-opacity="0" result="BackgroundImageFix"/>
<feColorMatrix in="SourceAlpha" type="matrix" values="0 0 0 0 0 0 0 0 0 0 0 0 0 0 0 0 0 0 127 0" result="hardAlpha"/>
<feOffset dy="4"/>
<feGaussianBlur stdDeviation="2"/>
<feComposite in2="hardAlpha" operator="out"/>
<feColorMatrix type="matrix" values="0 0 0 0 0 0 0 0 0 0 0 0 0 0 0 0 0 0 0.25 0"/>
<feBlend mode="normal" in2="BackgroundImageFix" result="effect1_dropShadow_25_21"/>
<feBlend mode="normal" in="SourceGraphic" in2="effect1_dropShadow_25_21" result="shape"/>
</filter>
</defs>
</svg>
