<svg width="12" height="12" viewBox="0 0 12 12" fill="none" xmlns="http://www.w3.org/2000/svg">
<g clip-path="url(#clip0_48_1372)">
<path fill-rule="evenodd" clip-rule="evenodd" d="M10.5 4.5H7.5V1.5C7.5 0.67125 6.82837 0 6 0C5.17163 0 4.5 0.67125 4.5 1.5V4.5H1.5C0.671625 4.5 0 5.17125 0 6C0 6.82875 0.671625 7.5 1.5 7.5H4.5V10.5C4.5 11.3287 5.17163 12 6 12C6.82837 12 7.5 11.3287 7.5 10.5V7.5H10.5C11.3284 7.5 12 6.82875 12 6C12 5.17125 11.3284 4.5 10.5 4.5Z" fill="black"/>
</g>
<defs>
<clipPath id="clip0_48_1372">
<rect width="12" height="12" fill="white"/>
</clipPath>
</defs>
</svg>
