<svg width="14" height="15" viewBox="0 0 14 15" fill="none" xmlns="http://www.w3.org/2000/svg">
<path fill-rule="evenodd" clip-rule="evenodd" d="M6.99997 5.05859C5.65137 5.05859 4.55811 6.15185 4.55811 7.50045C4.55811 8.84908 5.65137 9.94231 6.99997 9.94231C8.34859 9.94231 9.44183 8.84908 9.44183 7.50045C9.44183 6.15185 8.34859 5.05859 6.99997 5.05859ZM5.53485 7.50045C5.53485 6.69132 6.19083 6.03534 6.99997 6.03534C7.8091 6.03534 8.46508 6.69132 8.46508 7.50045C8.46508 8.30959 7.8091 8.96557 6.99997 8.96557C6.19083 8.96557 5.53485 8.30959 5.53485 7.50045Z" fill="black"/>
<path fill-rule="evenodd" clip-rule="evenodd" d="M6.98376 0.5C6.69439 0.499994 6.45274 0.499994 6.2544 0.513525C6.04791 0.527616 5.85289 0.557986 5.6638 0.636308C5.22503 0.818054 4.87643 1.16665 4.69468 1.60543C4.60007 1.83386 4.57444 2.07459 4.56466 2.33625C4.55679 2.5466 4.45064 2.7221 4.29397 2.81255C4.13732 2.90299 3.93225 2.90717 3.74616 2.80882C3.51466 2.68646 3.29336 2.58827 3.04822 2.556C2.57737 2.49401 2.10116 2.62161 1.72438 2.91073C1.56201 3.03532 1.43818 3.18904 1.32274 3.36082C1.21184 3.52583 1.09105 3.73507 0.94634 3.98572L0.929898 4.0142C0.785184 4.26484 0.66438 4.47407 0.576922 4.65262C0.485883 4.83848 0.414665 5.02258 0.387948 5.2255C0.325957 5.69636 0.453559 6.17255 0.742669 6.54937C0.893166 6.74543 1.08881 6.88804 1.31049 7.02732C1.48877 7.13932 1.5877 7.31904 1.58768 7.5C1.58768 7.68089 1.48875 7.86061 1.31049 7.97261C1.08878 8.1119 0.89312 8.2545 0.742611 8.45063C0.453494 8.8274 0.325899 9.30359 0.387883 9.77445C0.4146 9.97735 0.485818 10.1615 0.576857 10.3473C0.664315 10.5259 0.785119 10.7351 0.929826 10.9857L0.946275 11.0143C1.09098 11.2649 1.21178 11.4741 1.32268 11.6391C1.43812 11.8109 1.56194 11.9646 1.72432 12.0892C2.1011 12.3783 2.5773 12.5059 3.04816 12.444C3.29328 12.4117 3.51456 12.3135 3.74605 12.1912C3.93218 12.0928 4.13727 12.0969 4.29394 12.1875C4.45062 12.2779 4.55679 12.4534 4.56466 12.6638C4.57444 12.9254 4.60007 13.1662 4.69468 13.3946C4.87643 13.8333 5.22503 14.182 5.6638 14.3637C5.85289 14.442 6.04791 14.4724 6.2544 14.4865C6.45274 14.5 6.69439 14.5 6.98376 14.5H7.01665C7.30609 14.5 7.54767 14.5 7.74608 14.4865C7.95256 14.4724 8.14759 14.442 8.33669 14.3637C8.77544 14.182 9.12407 13.8333 9.30581 13.3946C9.40042 13.1662 9.42602 12.9254 9.43578 12.6637C9.44366 12.4534 9.5498 12.2779 9.70647 12.1874C9.86314 12.0969 10.0683 12.0928 10.2544 12.1911C10.4858 12.3135 10.7071 12.4117 10.9523 12.4439C11.4231 12.5059 11.8993 12.3783 12.2761 12.0892C12.4385 11.9646 12.5623 11.8109 12.6777 11.6391C12.7886 11.4741 12.9094 11.2649 13.0541 11.0143L13.0706 10.9857C13.2153 10.7351 13.3361 10.5258 13.4236 10.3473C13.5146 10.1614 13.5858 9.97735 13.6125 9.77445C13.6745 9.30353 13.5469 8.82733 13.2578 8.45057C13.1073 8.25444 12.9116 8.1119 12.69 7.97261C12.5117 7.86061 12.4128 7.68089 12.4128 7.49994C12.4128 7.31904 12.5117 7.13939 12.6899 7.02739C12.9117 6.8881 13.1074 6.74556 13.2578 6.54937C13.547 6.1726 13.6746 5.6964 13.6126 5.22554C13.5858 5.02263 13.5147 4.83853 13.4236 4.65266C13.3362 4.47413 13.2154 4.26491 13.0706 4.01429L13.0542 3.98579C12.9095 3.73514 12.7887 3.52588 12.6778 3.36086C12.5623 3.18909 12.4386 3.03537 12.2762 2.91077C11.8994 2.62166 11.4232 2.49406 10.9523 2.55605C10.7072 2.58832 10.4859 2.68649 10.2544 2.80884C10.0683 2.90721 9.86321 2.90303 9.70654 2.81257C9.54987 2.72211 9.44366 2.54659 9.43578 2.33622C9.42602 2.07456 9.40042 1.83384 9.30581 1.60543C9.12407 1.16665 8.77544 0.818054 8.33669 0.636308C8.14759 0.557986 7.95256 0.527616 7.74608 0.513525C7.54767 0.499994 7.30609 0.499994 7.01665 0.5H6.98376ZM6.03756 1.5387C6.08783 1.51789 6.16415 1.4987 6.32088 1.488C6.48204 1.47701 6.69016 1.47674 7.00024 1.47674C7.31032 1.47674 7.51843 1.47701 7.67953 1.488C7.83633 1.4987 7.91265 1.51789 7.96285 1.5387C8.1623 1.62132 8.3208 1.77977 8.40337 1.97921C8.42948 2.04212 8.45103 2.14019 8.45975 2.37272C8.47903 2.88869 8.74536 3.38549 9.21817 3.65845C9.69091 3.93142 10.2544 3.91366 10.7108 3.67239C10.9165 3.56366 11.0123 3.53332 11.0798 3.52444C11.2938 3.49626 11.5103 3.55426 11.6815 3.68567C11.7247 3.71878 11.7794 3.77528 11.8671 3.90569C11.9572 4.03974 12.0615 4.21983 12.2165 4.48837C12.3716 4.75692 12.4754 4.93727 12.5465 5.08232C12.6155 5.22342 12.6371 5.29912 12.6442 5.35303C12.6724 5.56706 12.6144 5.78352 12.483 5.95478C12.4415 6.0088 12.3674 6.07655 12.1703 6.20034C11.7332 6.47507 11.4361 6.95407 11.436 7.49994C11.436 8.04587 11.7331 8.52493 12.1703 8.79966C12.3673 8.92344 12.4414 8.99116 12.4829 9.04521C12.6143 9.21646 12.6723 9.43291 12.6441 9.64695C12.637 9.70087 12.6155 9.77653 12.5464 9.91764C12.4753 10.0627 12.3715 10.243 12.2164 10.5116C12.0614 10.7801 11.9572 10.9602 11.867 11.0943C11.7794 11.2247 11.7246 11.2812 11.6814 11.3143C11.5102 11.4457 11.2937 11.5037 11.0797 11.4755C11.0122 11.4666 10.9165 11.4363 10.7108 11.3276C10.2543 11.0863 9.69084 11.0686 9.21803 11.3415C8.74536 11.6145 8.47903 12.1113 8.45975 12.6273C8.45103 12.8598 8.42948 12.9579 8.40337 13.0208C8.3208 13.2202 8.1623 13.3787 7.96285 13.4613C7.91265 13.4821 7.83633 13.5013 7.67953 13.512C7.51843 13.523 7.31032 13.5233 7.00024 13.5233C6.69016 13.5233 6.48204 13.523 6.32088 13.512C6.16415 13.5013 6.08783 13.4821 6.03756 13.4613C5.83817 13.3787 5.67969 13.2202 5.59707 13.0208C5.57102 12.9579 5.54942 12.8598 5.54072 12.6273C5.52142 12.1113 5.2551 11.6145 4.78231 11.3415C4.30953 11.0686 3.74613 11.0863 3.28964 11.3276C3.08392 11.4363 2.98818 11.4667 2.92067 11.4755C2.70664 11.5037 2.49019 11.4457 2.31893 11.3143C2.27578 11.2812 2.221 11.2247 2.13336 11.0943C2.04327 10.9603 1.93899 10.7802 1.78394 10.5116C1.6289 10.2431 1.52507 10.0627 1.45403 9.9177C1.38491 9.7766 1.36337 9.70087 1.35627 9.64695C1.3281 9.43291 1.3861 9.21646 1.51751 9.04521C1.55897 8.99123 1.6331 8.92344 1.83014 8.79966C2.26731 8.525 2.5644 8.04594 2.56443 7.50007C2.56446 6.95407 2.26736 6.475 1.83014 6.20028C1.63315 6.07649 1.55903 6.00875 1.51757 5.95473C1.38616 5.78347 1.32816 5.56702 1.35634 5.35299C1.36344 5.29908 1.38498 5.22337 1.45409 5.08228C1.52514 4.93723 1.62896 4.75687 1.784 4.48833C1.93905 4.21979 2.04333 4.0397 2.13342 3.90564C2.22106 3.77524 2.27584 3.71873 2.31898 3.68563C2.49025 3.55421 2.70671 3.49622 2.92073 3.52439C2.98825 3.53328 3.08399 3.56361 3.28974 3.67236C3.7462 3.91362 4.30958 3.93138 4.78234 3.65843C5.25511 3.38548 5.52142 2.88871 5.54072 2.37276C5.54942 2.14021 5.57102 2.04213 5.59707 1.97921C5.67969 1.77977 5.83817 1.62132 6.03756 1.5387Z" fill="black"/>
</svg>
