<svg width="16" height="17" viewBox="0 0 16 17" fill="none" xmlns="http://www.w3.org/2000/svg">
<path d="M14 12.4318C14 12.4318 13.2064 12.1188 12.6667 11.9665C9.25313 11.0034 6.74687 13.8602 3.33333 12.8971C2.79361 12.7448 2 12.4318 2 12.4318M14 8.4318C14 8.4318 13.2064 8.1188 12.6667 7.96654C9.25313 7.0034 6.74687 9.8602 3.33333 8.89707C2.79361 8.7448 2 8.4318 2 8.4318M14 4.4318C14 4.4318 13.2064 4.11879 12.6667 3.96651C9.25313 3.0034 6.74687 5.86021 3.33333 4.8971C2.79361 4.74482 2 4.4318 2 4.4318" stroke="black" stroke-width="0.6" stroke-linecap="round" stroke-linejoin="round"/>
</svg>
